SplineFontDB: 3.0
FontName: AnkaCoder-C87-SkelB
FullName: Anna Shugol/Coder Condensed Bold
FamilyName: Anka/Coder Condensed
Weight: Bold
Copyright: Copyright (c) 2010, Andrey Makarov (makarov@bmstu.ru, mka-at-mailru@mail.ru),\nwith Reserved Font Name Anka/Coder Condensed.\n---------------------------------\nThe Anka/* are members of Anna Shugol name font family; March 2010
Version: 001.000
StrokeWidth: 100
ItalicAngle: 0
UnderlinePosition: -292
UnderlineWidth: 50
Ascent: 1638
Descent: 410
LayerCount: 2
Layer: 0 0 "Back"  1
Layer: 1 0 "Fore"  0
StrokedFont: 1
NeedsXUIDChange: 1
XUID: [1021 77 1780377344 14890955]
UseXUID: 1
BaseHoriz: 0
FSType: 8
OS2Version: 1
OS2_WeightWidthSlopeOnly: 0
OS2_UseTypoMetrics: 1
CreationTime: 1260467214
ModificationTime: 1268390781
PfmFamily: 49
TTFWeight: 700
TTFWidth: 4
LineGap: 0
VLineGap: 0
Panose: 2 11 8 9 2 5 2 2 2 4
OS2TypoAscent: 0
OS2TypoAOffset: 1
OS2TypoDescent: 0
OS2TypoDOffset: 1
OS2TypoLinegap: 0
OS2WinAscent: 0
OS2WinAOffset: 1
OS2WinDescent: 0
OS2WinDOffset: 1
HheadAscent: 0
HheadAOffset: 1
HheadDescent: 0
HheadDOffset: 1
OS2SubXSize: 553
OS2SubYSize: 1229
OS2SubXOff: 0
OS2SubYOff: 283
OS2SupXSize: 553
OS2SupYSize: 1229
OS2SupXOff: 0
OS2SupYOff: 977
OS2StrikeYSize: 102
OS2StrikeYPos: 530
OS2FamilyClass: 1285
OS2Vendor: 'AVM1'
OS2CodePages: 40000097.cfd60000
OS2UnicodeRanges: 800002ef.000079eb.00000000.00000000
DEI: 91125
ShortTable: maxp 16
  0
  0
  0
  0
  0
  0
  0
  2
  1
  0
  9
  0
  256
  0
  0
  0
EndShort
TtTable: prep
PUSHW_1
 511
SCANCTRL
SVTCA[y-axis]
MPPEM
PUSHB_1
 8
LT
IF
PUSHB_2
 1
 1
INSTCTRL
EIF
PUSHB_2
 70
 6
CALL
IF
POP
PUSHB_1
 16
EIF
MPPEM
PUSHB_1
 20
GT
IF
POP
PUSHB_1
 128
EIF
SCVTCI
PUSHB_1
 6
CALL
NOT
IF
EIF
EndTTInstrs
TtTable: fpgm
PUSHB_1
 0
FDEF
PUSHB_1
 0
SZP0
MPPEM
PUSHB_1
 42
LT
IF
PUSHB_1
 74
SROUND
EIF
PUSHB_1
 0
SWAP
MIAP[rnd]
RTG
PUSHB_1
 6
CALL
IF
RTDG
EIF
MPPEM
PUSHB_1
 42
LT
IF
RDTG
EIF
DUP
MDRP[rp0,rnd,grey]
PUSHB_1
 1
SZP0
MDAP[no-rnd]
RTG
ENDF
PUSHB_1
 1
FDEF
DUP
DUP

StartChar: exclam
Encoding: 33 33 1
Width: 1075
VWidth: 1708
GlyphClass: 2
Flags: W
HStem: -23 236<363.831 557.094> 1398 20G<428.5 489>
VStem: 336 249<6.3129 184.037 1384.21 1392.37> 371 182<384 808.823>
LayerCount: 2
Fore
SplineSet
662 45 m 4xe0
 662 -24 603 -73 537 -73 c 4
 473 -73 413 -23 413 45 c 4
 413 107 467 163 537 163 c 4
 602 163 662 115 662 45 c 4xe0
533 1418 m 0
 607 1418 679 1370 679 1273 c 1
 644 384 l 1
 434 384 l 1xd0
 399 1274 l 1
 399 1370 467 1418 533 1418 c 0
EndSplineSet
EndChar

StartChar: quotedbl
Encoding: 34 34 2
Width: 1075
VWidth: 1708
GlyphClass: 2
Flags: W
VStem: 178 268<1120 1319> 628 268<1120 1319>
LayerCount: 2
Fore
SplineSet
330 1077 m 2
 318 1055 284 1038 254 1038 c 3
 204 1038 178 1085 178 1120 c 3
 178 1125 180 1134 182 1139 c 2
 236 1347 l 2
 248 1388 296 1426 346 1426 c 3
 412 1426 446 1374 446 1319 c 3
 446 1301 442 1278 434 1265 c 2
 330 1077 l 2
780 1077 m 2
 768 1055 734 1038 704 1038 c 3
 654 1038 628 1085 628 1120 c 3
 628 1125 630 1134 632 1139 c 2
 686 1347 l 2
 698 1388 746 1426 796 1426 c 3
 862 1426 896 1374 896 1319 c 3
 896 1301 892 1278 884 1265 c 2
 780 1077 l 2
EndSplineSet
EndChar

StartChar: numbersign
Encoding: 35 35 3
Width: 1075
VWidth: 1708
GlyphClass: 2
Flags: MW
LayerCount: 2
Back
SplineSet
-23 0 m 1
 183 1320 l 1
 1099 1320 l 1
 893 0 l 1
 -23 0 l 1
EndSplineSet
Fore
SplineSet
5 943 m 25
 1071 943 l 25
5 416 m 25
 1071 416 l 25
866 1425 m 25
 632 -99 l 25
439 1425 m 25
 204 -99 l 25
EndSplineSet
EndChar

StartChar: dollar
Encoding: 36 36 4
Width: 1075
VWidth: 2334
GlyphClass: 2
Flags: MW
LayerCount: 2
Fore
SplineSet
538 1494 m 25
 538 -93 l 25
166 357 m 0
 166 203 345 80 528 80 c 10
 548 80 l 18
 726 80 884 183 884 337 c 10
 884 367 l 18
 884 471 822 616 679 684 c 2
 375 818 l 2
 271 864 222 957 222 1033 c 2
 222 1063 l 2
 222 1218 355 1320 535 1320 c 10
 543 1320 l 18
 696 1320 824 1261 865 1145 c 1
 874 1120 879 1093 879 1063 c 0
EndSplineSet
EndChar

StartChar: percent
Encoding: 37 37 5
Width: 1075
VWidth: 1708
GlyphClass: 2
Flags: MW
LayerCount: 2
Fore
SplineSet
109 106 m 25
 967 1295 l 25
296 1333 m 3
 402 1333 456 1246 456 1145 c 3
 456 1048 402 957 296 957 c 3
 192 957 136 1044 136 1145 c 3
 136 1248 193 1333 296 1333 c 3
780 439 m 3
 886 439 940 353 940 252 c 3
 940 154 886 64 780 64 c 3
 676 64 620 151 620 252 c 3
 620 355 677 439 780 439 c 3
EndSplineSet
EndChar

StartChar: ampersand
Encoding: 38 38 6
Width: 1075
VWidth: 2334
GlyphClass: 2
Flags: MW
LayerCount: 2
Fore
SplineSet
953 10 m 1
 464 779 l 2
 403 865 316 1004 316 1108 c 2
 316 1130 l 2
 316 1246 394 1320 528 1320 c 10
 550 1320 l 18
 689 1320 775 1239 775 1125 c 2
 775 1098 l 2
 775 1017 704 943 662 909 c 2
 310 639 l 1
 225 546 166 471 166 367 c 10
 166 337 l 18
 166 183 323 80 501 80 c 10
 522 80 l 18
 667 80 768 153 822 272 c 2
 967 590 l 0
EndSplineSet
EndChar

StartChar: quotesingle
Encoding: 39 39 7
Width: 1075
VWidth: 1708
GlyphClass: 2
Flags: W
LayerCount: 2
Fore
SplineSet
554 1077 m 2
 542 1055 510 1038 478 1038 c 3
 428 1038 402 1085 402 1120 c 3
 402 1125 402 1135 402 1139 c 2
 462 1347 l 2
 470 1388 520 1426 572 1426 c 3
 636 1426 672 1374 672 1319 c 3
 672 1301 668 1278 660 1265 c 2
 554 1077 l 2
EndSplineSet
EndChar

StartChar: parenleft
Encoding: 40 40 8
Width: 1075
VWidth: 1708
GlyphClass: 2
Flags: MW
LayerCount: 2
Fore
SplineSet
860 1480 m 17
 626 1320 410 1040 410 700 c 27
 410 360 626 81 860 -80 c 9
EndSplineSet
EndChar

StartChar: parenright
Encoding: 41 41 9
Width: 1075
VWidth: 1708
GlyphClass: 2
Flags: MW
LayerCount: 2
Fore
SplineSet
215 1480 m 17
 450 1320 666 1040 666 700 c 27
 666 360 450 81 215 -80 c 9
EndSplineSet
EndChar

StartChar: asterisk
Encoding: 42 42 10
Width: 1075
VWidth: 1708
GlyphClass: 2
Flags: MW
LayerCount: 2
Fore
SplineSet
323.459 304.709 m 25
 538 600 l 25
 538 965 l 25
538 600 m 25
 752.541 304.709 l 25
885.135 712.791 m 25
 538 600 l 25
 190.865 712.791 l 25
EndSplineSet
EndChar

StartChar: plus
Encoding: 43 43 11
Width: 1075
VWidth: 1708
GlyphClass: 2
Flags: MW
LayerCount: 2
Fore
SplineSet
538 189 m 29
 538 1011 l 29
127 600 m 29
 949 600 l 29
EndSplineSet
EndChar

StartChar: comma
Encoding: 44 44 12
Width: 1075
VWidth: 1947
GlyphClass: 2
Flags: MW
LayerCount: 2
Fore
SplineSet
667 29 m 21
 667 -102 653 -306 391 -334 c 13
 371 -260 l 21
 440 -235 555 -158 452 -69 c 13
 667 29 l 21
667 29 m 4
 667 -40 614 -101 537 -101 c 4
 463 -101 408 -41 408 29 c 4
 408 97 459 159 537 159 c 4
 613 159 667 99 667 29 c 4
EndSplineSet
EndChar

StartChar: hyphen
Encoding: 45 45 13
Width: 1075
VWidth: 1708
GlyphClass: 2
Flags: MW
LayerCount: 2
Fore
SplineSet
127 600 m 29
 949 600 l 29
EndSplineSet
EndChar

StartChar: period
Encoding: 46 46 14
Width: 1075
VWidth: 1708
GlyphClass: 2
Flags: MW
LayerCount: 2
Fore
SplineSet
667 29 m 4
 667 -40 614 -101 537 -101 c 4
 463 -101 408 -41 408 29 c 4
 408 97 459 159 537 159 c 4
 613 159 667 99 667 29 c 4
EndSplineSet
EndChar

StartChar: slash
Encoding: 47 47 15
Width: 1075
VWidth: 1708
GlyphClass: 2
Flags: MW
LayerCount: 2
Fore
SplineSet
215 -25 m 29
 860 1425 l 29
EndSplineSet
EndChar

StartChar: zero
Encoding: 48 48 16
Width: 1075
VWidth: 1708
GlyphClass: 2
Flags: MW
LayerCount: 2
Back
SplineSet
5 1476 m 5
 966 1476 l 5
 1071 1186 l 5
 1071 -51 l 5
 114 -51 l 5
 5 219 l 5
 5 1476 l 5
EndSplineSet
Fore
SplineSet
-19 -25 m 25
 1094 1425 l 25
538 1320 m 3
 824 1320 872 1025 872 700 c 3
 872 369 817 80 538 80 c 3
 251 80 204 384 204 700 c 3
 204 1025 255 1320 538 1320 c 3
EndSplineSet
EndChar

StartChar: one
Encoding: 49 49 17
Width: 1075
VWidth: 1708
GlyphClass: 2
Flags: MW
LayerCount: 2
Back
SplineSet
5 335 m 5
 370 735 l 5
 370 908 l 5
 279 1024 l 5
 615 1425 l 5
 1071 1425 l 5
 1071 -25 l 5
 5 -25 l 5
 5 335 l 5
EndSplineSet
Fore
SplineSet
652 0 m 25
 652 1320 l 25
 176 953 l 25
EndSplineSet
EndChar

StartChar: two
Encoding: 50 50 18
Width: 1075
VWidth: 2334
GlyphClass: 2
Flags: MW
LayerCount: 2
Back
SplineSet
109 -25 m 5
 109 1479 l 5
 1071 1479 l 5
 1071 -25 l 5
 109 -25 l 5
EndSplineSet
Fore
SplineSet
228 1149 m 1
 281 1258 350 1320 528 1320 c 10
 548 1320 l 18
 756 1320 860 1242 860 1064 c 10
 860 1024 l 18
 860 966 820 897 755 822 c 2
 372 384 l 2
 297 299 249 210 215 105 c 1
 967 105 l 9
EndSplineSet
EndChar

StartChar: three
Encoding: 51 51 19
Width: 1075
VWidth: 2334
GlyphClass: 2
Flags: MW
LayerCount: 2
Fore
SplineSet
236 1158 m 5
 283 1264 405 1320 528 1320 c 14
 548 1320 l 22
 704 1320 808 1218 808 1063 c 14
 808 1022 l 22
 808 912 704 777 550 777 c 5
 354 777 l 13
 548 777 l 22
 756 777 860 641 860 417 c 14
 860 397 l 22
 860 177 756 80 548 80 c 14
 528 80 l 22
 387 80 215 156 215 337 c 5
EndSplineSet
EndChar

StartChar: four
Encoding: 52 52 20
Width: 1075
VWidth: 1708
GlyphClass: 2
Flags: MW
LayerCount: 2
Back
SplineSet
109 1425 m 5
 967 1425 l 5
 967 0 l 5
 109 0 l 5
 109 1425 l 5
EndSplineSet
Fore
SplineSet
782 0 m 25
 782 1322 l 25
 196 427 l 25
 965 427 l 25
EndSplineSet
EndChar

StartChar: five
Encoding: 53 53 21
Width: 1075
VWidth: 2334
GlyphClass: 2
Flags: MW
LayerCount: 2
Back
SplineSet
5 1425 m 5
 1071 1425 l 5
 1071 -54 l 5
 5 -54 l 5
 5 173 l 5
 433 393 l 5
 433 556 l 5
 5 813 l 5
 5 1425 l 5
EndSplineSet
Fore
SplineSet
900 1295 m 1
 320 1295 l 1
 215 543 l 1
215 495 m 1
 215 714 399 847 528 847 c 10
 548 847 l 18
 756 847 860 711 860 487 c 10
 860 427 l 18
 860 201 756 80 548 80 c 10
 470 80 l 18
 339 80 158 156 158 337 c 1
EndSplineSet
EndChar

StartChar: six
Encoding: 54 54 22
Width: 1075
VWidth: 2334
GlyphClass: 2
Flags: MW
LayerCount: 2
Fore
SplineSet
215 432 m 25
 215 944 l 17
 217 1139 320 1320 528 1320 c 10
 548 1320 l 18
 694 1320 789 1289 833 1200 c 1
215 487 m 10
 215 427 l 18
 215 201 354 80 528 80 c 10
 548 80 l 18
 756 80 860 201 860 427 c 10
 860 487 l 18
 860 711 756 847 548 847 c 10
 528 847 l 18
 320 847 215 711 215 487 c 10
EndSplineSet
EndChar

StartChar: seven
Encoding: 55 55 23
Width: 1075
VWidth: 1708
GlyphClass: 2
Flags: MW
LayerCount: 2
Back
SplineSet
5 1485 m 5
 967 1485 l 5
 967 0 l 5
 5 0 l 5
 5 1485 l 5
EndSplineSet
Fore
SplineSet
109 1295 m 25
 860 1295 l 17
 613 864 400 427 303 -45 c 9
EndSplineSet
EndChar

StartChar: eight
Encoding: 56 56 24
Width: 1075
VWidth: 2334
GlyphClass: 2
Flags: MW
LayerCount: 2
Fore
SplineSet
548 1320 m 14
 528 1320 l 22
 372 1320 268 1221 268 1064 c 6
 268 1024 l 6
 268 912 372 777 526 777 c 14
 550 777 l 22
 704 777 808 912 808 1023 c 14
 808 1063 l 22
 808 1218 704 1320 548 1320 c 14
215 417 m 14
 215 397 l 22
 215 180 354 80 528 80 c 14
 548 80 l 22
 756 80 860 177 860 397 c 14
 860 417 l 22
 860 641 756 777 548 777 c 14
 528 777 l 22
 320 777 215 641 215 417 c 14
EndSplineSet
EndChar

StartChar: nine
Encoding: 57 57 25
Width: 1075
VWidth: 2334
GlyphClass: 2
Flags: MW
LayerCount: 2
Fore
SplineSet
860 955 m 25
 860 443 l 17
 860 235 756 80 548 80 c 10
 528 80 l 18
 382 80 286 112 243 200 c 1
860 900 m 18
 860 676 756 553 548 553 c 10
 528 553 l 18
 320 553 215 676 215 900 c 10
 215 960 l 18
 215 1186 320 1320 528 1320 c 10
 548 1320 l 18
 722 1320 860 1186 860 960 c 10
 860 900 l 18
EndSplineSet
EndChar

StartChar: less
Encoding: 60 60 28
Width: 1075
VWidth: 1708
GlyphClass: 2
Flags: MW
LayerCount: 2
Back
SplineSet
167 1332 m 5
 909 1332 l 5
 909 -110 l 5
 167 -110 l 5
 167 1332 l 5
EndSplineSet
Fore
SplineSet
979 1160 m 25
 229 600 l 25
 979 40 l 25
EndSplineSet
EndChar

StartChar: equal
Encoding: 61 61 29
Width: 1075
VWidth: 1708
GlyphClass: 2
Flags: MW
LayerCount: 2
Fore
SplineSet
127 810 m 29
 949 810 l 29
127 400 m 29
 949 400 l 29
EndSplineSet
EndChar

StartChar: greater
Encoding: 62 62 30
Width: 1075
VWidth: 1708
GlyphClass: 2
Flags: MW
LayerCount: 2
Back
SplineSet
167 1332 m 5
 909 1332 l 5
 909 -110 l 5
 167 -110 l 5
 167 1332 l 5
EndSplineSet
Fore
SplineSet
97 40 m 25
 847 600 l 25
 97 1160 l 25
EndSplineSet
EndChar

StartChar: question
Encoding: 63 63 31
Width: 1075
VWidth: 1708
GlyphClass: 2
Flags: MW
LayerCount: 2
Fore
SplineSet
662 45 m 0xe0
 662 -24 603 -73 537 -73 c 0
 473 -73 413 -23 413 45 c 0
 413 107 467 163 537 163 c 0
 602 163 662 115 662 45 c 0xe0
538 330 m 29
 538 480 l 18
 538 700 860 821 860 1024 c 10
 860 1063 l 18
 860 1242 756 1320 548 1320 c 10
 528 1320 l 18
 320 1320 215 1242 215 1063 c 9
EndSplineSet
EndChar

StartChar: at
Encoding: 64 64 32
Width: 1075
VWidth: 1708
GlyphClass: 2
Flags: MW
LayerCount: 2
Fore
SplineSet
711 955 m 2
 711 955 830 956 907 956 c 25
 907 639 l 2
 907 530 827 435 711 435 c 3
 566 435 511 541 511 702 c 3
 511 863 566 955 711 955 c 2
860 162 m 1
 775 87 640 80 538 80 c 3
 251 80 135 384 135 700 c 3
 135 1024 255 1320 538 1320 c 3
 723 1320 907 1204 907 1033 c 2
 907 340 l 17
EndSplineSet
EndChar

StartChar: B
Encoding: 66 66 33
Width: 1075
VWidth: 1947
GlyphClass: 2
Flags: MW
LayerCount: 2
Fore
SplineSet
860 337 m 14
 860 485 l 22
 860 664 756 755 548 755 c 14
 215 755 l 29
 491 755 l 6
 699 755 803 844 803 1025 c 6
 803 1063 l 6
 803 1242 709 1295 491 1295 c 6
 215 1295 l 5
 215 105 l 5
 548 105 l 6
 756 105 860 156 860 337 c 14
EndSplineSet
EndChar

StartChar: C
Encoding: 67 67 34
Width: 1075
VWidth: 1947
GlyphClass: 2
Flags: MW
LayerCount: 2
Fore
SplineSet
829 315 m 1
 785 168 698 80 538 80 c 3
 267 80 204 342 204 647 c 2
 204 752 l 2
 204 1049 273 1320 538 1320 c 3
 705 1320 791 1228 834 1074 c 1
EndSplineSet
EndChar

StartChar: D
Encoding: 68 68 35
Width: 1075
VWidth: 1947
GlyphClass: 2
Flags: MW
LayerCount: 2
Fore
SplineSet
538 1295 m 6
 824 1295 872 1025 872 700 c 7
 872 369 817 105 538 105 c 6
 215 105 l 5
 215 1295 l 5
 538 1295 l 6
EndSplineSet
EndChar

StartChar: E
Encoding: 69 69 36
Width: 1075
VWidth: 1708
GlyphClass: 2
Flags: MW
LayerCount: 2
Fore
SplineSet
860 755 m 29
 215 755 l 29
967 1295 m 29
 215 1295 l 29
 215 106 l 29
 967 106 l 29
EndSplineSet
EndChar

StartChar: F
Encoding: 70 70 37
Width: 1075
VWidth: 1708
GlyphClass: 2
Flags: MW
LayerCount: 2
Fore
SplineSet
860 755 m 25
 215 755 l 25
967 1295 m 25
 215 1295 l 25
 215 106 l 25
EndSplineSet
EndChar

StartChar: G
Encoding: 71 71 38
Width: 1075
VWidth: 1947
GlyphClass: 2
Flags: MW
LayerCount: 2
Fore
SplineSet
834 1074 m 1
 791 1228 705 1320 538 1320 c 3
 255 1320 204 1025 204 700 c 3
 204 384 251 80 538 80 c 3
 698 80 817 142 862 289 c 9
 862 617 l 1
 588 617 l 25
EndSplineSet
EndChar

StartChar: H
Encoding: 72 72 39
Width: 1075
VWidth: 1947
GlyphClass: 2
Flags: MW
LayerCount: 2
Fore
SplineSet
215 700 m 25
 860 700 l 25
860 1400 m 25
 860 0 l 25
215 1400 m 25
 215 0 l 25
EndSplineSet
EndChar

StartChar: I
Encoding: 73 73 40
Width: 1075
VWidth: 1947
GlyphClass: 2
Flags: MW
LayerCount: 2
Fore
SplineSet
109 105 m 29
 967 105 l 29
538 92 m 21
109 1295 m 29
 967 1295 l 5
538 1296 m 5
 538 105 l 13
EndSplineSet
EndChar

StartChar: J
Encoding: 74 74 41
Width: 1075
VWidth: 1947
GlyphClass: 2
Flags: MW
LayerCount: 2
Fore
SplineSet
176 240 m 5
 207 124 298 80 424 80 c 14
 444 80 l 22
 600 80 704 157 704 337 c 14
 704 1295 l 29
373 1295 m 29
 990 1295 l 29
EndSplineSet
EndChar

StartChar: K
Encoding: 75 75 42
Width: 1075
VWidth: 1947
GlyphClass: 2
Flags: MW
LayerCount: 2
Back
SplineSet
5 1400 m 5
 1071 1400 l 5
 1071 0 l 5
 5 0 l 5
 5 1400 l 5
EndSplineSet
Fore
SplineSet
967 -141 m 25
 449 765 l 25
952 1524 m 25
 215 485 l 25
217 1400 m 25
 217 0 l 25
EndSplineSet
EndChar

StartChar: L
Encoding: 76 76 43
Width: 1075
VWidth: 1947
GlyphClass: 2
Flags: MW
LayerCount: 2
Fore
SplineSet
215 1400 m 29
 215 106 l 29
 967 106 l 29
EndSplineSet
EndChar

StartChar: M
Encoding: 77 77 44
Width: 1075
VWidth: 1947
GlyphClass: 2
Flags: MW
LayerCount: 2
Back
SplineSet
5 1 m 5
 5 1401 l 5
 1071 1401 l 5
 1071 1 l 5
 711 1 l 5
 710 243 l 5
 372 243 l 5
 372 1 l 5
 5 1 l 5
EndSplineSet
Fore
SplineSet
116 -74 m 25
 239 1402 l 25
 538 352 l 25
 837 1402 l 25
 960 -75 l 25
EndSplineSet
EndChar

StartChar: N
Encoding: 78 78 45
Width: 1075
VWidth: 1947
GlyphClass: 2
Flags: MW
LayerCount: 2
Back
SplineSet
5 1400 m 5
 1071 1400 l 5
 1071 0 l 5
 5 0 l 5
 5 1400 l 5
EndSplineSet
Fore
SplineSet
215 0 m 25
 215 1320 l 25
 860 79 l 25
 860 1400 l 25
EndSplineSet
EndChar

StartChar: O
Encoding: 79 79 46
Width: 1075
VWidth: 1947
GlyphClass: 2
Flags: MW
LayerCount: 2
Fore
SplineSet
538 1320 m 3
 794.898 1320 870 1082.21 870 798 c 2
 870 608 l 2
 870 316.792 790.636 80 538 80 c 3
 276.426 80 205 331.857 205 616 c 2
 205 783 l 2
 205 1074.14 279.333 1320 538 1320 c 3
EndSplineSet
EndChar

StartChar: P
Encoding: 80 80 47
Width: 1075
VWidth: 1947
GlyphClass: 2
Flags: MW
LayerCount: 2
Fore
SplineSet
215 685 m 29
 548 685 l 6
 756 685 860 761 860 942 c 6
 860 1063 l 6
 860 1229 767 1295 548 1295 c 6
 215 1295 l 5
 215 0 l 5
EndSplineSet
EndChar

StartChar: Q
Encoding: 81 81 48
Width: 1075
VWidth: 1947
GlyphClass: 2
Flags: MW
LayerCount: 2
Fore
SplineSet
538 399 m 25
 860 -144 l 25
538 1320 m 3
 824 1320 872 1025 872 700 c 3
 872 369 817 80 538 80 c 3
 251 80 204 384 204 700 c 3
 204 1025 255 1320 538 1320 c 3
EndSplineSet
EndChar

StartChar: R
Encoding: 82 82 49
Width: 1075
VWidth: 1947
GlyphClass: 2
Flags: MW
LayerCount: 2
Back
SplineSet
5 1458 m 5
 1071 1458 l 5
 1071 0 l 5
 5 0 l 5
 5 1458 l 5
EndSplineSet
Fore
SplineSet
955 -102 m 25
 538 680 l 25
215 685 m 25
 548 685 l 2
 756 685 860 762 860 943 c 2
 860 1063 l 2
 860 1229 767 1295 548 1295 c 2
 215 1295 l 1
 215 0 l 1
EndSplineSet
EndChar

StartChar: S
Encoding: 83 83 50
Width: 1075
VWidth: 2334
GlyphClass: 2
Flags: MW
LayerCount: 2
Fore
SplineSet
166 357 m 0
 166 203 345 80 528 80 c 10
 548 80 l 18
 726 80 884 183 884 337 c 10
 884 367 l 18
 884 471 822 616 679 684 c 2
 375 818 l 2
 271 864 222 957 222 1033 c 2
 222 1063 l 2
 222 1218 355 1320 535 1320 c 10
 543 1320 l 18
 696 1320 824 1261 865 1145 c 1
 874 1120 879 1093 879 1063 c 0
EndSplineSet
EndChar

StartChar: T
Encoding: 84 84 51
Width: 1075
VWidth: 1947
GlyphClass: 2
Flags: MW
LayerCount: 2
Fore
SplineSet
538 0 m 29
 538 1295 l 29
86 1295 m 29
 990 1295 l 29
EndSplineSet
EndChar

StartChar: U
Encoding: 85 85 52
Width: 1075
VWidth: 1947
GlyphClass: 2
Flags: MW
LayerCount: 2
Fore
SplineSet
215 1400 m 29
 215 337 l 22
 215 156 320 80 528 80 c 14
 548 80 l 22
 756 80 860 156 860 337 c 14
 860 1400 l 29
EndSplineSet
EndChar

StartChar: V
Encoding: 86 86 53
Width: 1075
VWidth: 1708
GlyphClass: 2
Flags: MW
LayerCount: 2
Back
SplineSet
5 -25 m 1
 5 1400 l 1
 1071 1400 l 1
 1071 -25 l 1
 5 -25 l 1
EndSplineSet
Fore
SplineSet
184 1425 m 25
 538 50 l 25
 891 1425 l 25
EndSplineSet
EndChar

StartChar: W
Encoding: 87 87 54
Width: 1075
VWidth: 1947
GlyphClass: 2
Flags: MW
LayerCount: 2
Back
SplineSet
5 1400 m 5
 372 1400 l 5
 372 1158 l 5
 710 1158 l 5
 711 1400 l 5
 1071 1400 l 5
 1071 0 l 5
 5 0 l 5
 5 1400 l 5
EndSplineSet
Fore
SplineSet
116 1475 m 25
 239 -1 l 25
 538 1049 l 25
 837 -1 l 25
 960 1476 l 25
EndSplineSet
EndChar

StartChar: X
Encoding: 88 88 55
Width: 1075
VWidth: 1947
GlyphClass: 2
Flags: MW
LayerCount: 2
Back
SplineSet
5 1400 m 5
 1071 1400 l 5
 1071 0 l 5
 5 0 l 5
 5 1400 l 5
EndSplineSet
Fore
SplineSet
907 1480 m 25
 169 -80 l 25
169 1480 m 25
 907 -80 l 25
EndSplineSet
EndChar

StartChar: Y
Encoding: 89 89 56
Width: 1075
VWidth: 1947
GlyphClass: 2
Flags: MW
LayerCount: 2
Back
SplineSet
5 1400 m 5
 1071 1400 l 5
 1071 -25 l 5
 5 -25 l 5
 5 1400 l 5
EndSplineSet
Fore
SplineSet
907 1480 m 17
 538 513 l 1
 538 -50 l 9
169 1480 m 25
 538 513 l 25
EndSplineSet
EndChar

StartChar: Z
Encoding: 90 90 57
Width: 1075
VWidth: 1947
GlyphClass: 2
Flags: MW
LayerCount: 2
Back
SplineSet
109 1425 m 5
 967 1425 l 5
 967 -25 l 5
 109 -25 l 5
 109 1425 l 5
EndSplineSet
Fore
SplineSet
109 1295 m 25
 860 1295 l 25
 215 106 l 25
 967 106 l 25
EndSplineSet
EndChar

StartChar: bracketleft
Encoding: 91 91 58
Width: 1075
VWidth: 1947
GlyphClass: 2
Flags: MW
LayerCount: 2
Fore
SplineSet
860 1480 m 21
 410 1480 l 5
 410 -80 l 29
 860 -80 l 13
EndSplineSet
EndChar

StartChar: backslash
Encoding: 92 92 59
Width: 1075
VWidth: 1708
GlyphClass: 2
Flags: MW
LayerCount: 2
Fore
SplineSet
860 -25 m 25
 215 1425 l 25
EndSplineSet
EndChar

StartChar: bracketright
Encoding: 93 93 60
Width: 1075
VWidth: 1947
GlyphClass: 2
Flags: MW
LayerCount: 2
Fore
SplineSet
215 1480 m 17
 666 1480 l 1
 666 -80 l 25
 215 -80 l 9
EndSplineSet
EndChar

StartChar: asciicircum
Encoding: 94 94 61
Width: 1075
VWidth: 1947
GlyphClass: 2
Flags: MW
LayerCount: 2
Back
SplineSet
77 1425 m 5
 999 1425 l 5
 999 0 l 5
 77 0 l 5
 77 1425 l 5
EndSplineSet
Fore
SplineSet
259 957 m 25
 538 1353 l 25
 817 957 l 25
EndSplineSet
EndChar

StartChar: underscore
Encoding: 95 95 62
Width: 1075
VWidth: 1947
GlyphClass: 2
Flags: MW
LayerCount: 2
Fore
SplineSet
167 -92 m 25
 909 -92 l 25
EndSplineSet
EndChar

StartChar: grave
Encoding: 96 96 63
Width: 1075
VWidth: 1708
GlyphClass: 2
Flags: W
LayerCount: 2
Fore
SplineSet
712 1177 m 2
 722 1165 726 1147 726 1129 c 3
 726 1107 720 1085 706 1070 c 0
 690 1055 668 1049 648 1049 c 3
 628 1049 610 1054 598 1063 c 2
 388 1235 l 2
 364 1254 348 1287 348 1323 c 3
 348 1350 356 1377 376 1397 c 0
 396 1417 424 1426 450 1426 c 3
 486 1426 520 1409 540 1386 c 2
 712 1177 l 2
EndSplineSet
EndChar

StartChar: a
Encoding: 97 97 64
Width: 1075
VWidth: 1947
GlyphClass: 2
Flags: MW
LayerCount: 2
Fore
SplineSet
860 561 m 29
 528 561 l 22
 320 561 215 425 215 337 c 14
 215 291 l 22
 215 201 320 80 528 80 c 14
 548 80 l 22
 704 80 860 246 860 337 c 13
242 822 m 5
 286 912 381 944 528 944 c 14
 548 944 l 22
 756 944 860 866 860 687 c 14
 860 0 l 29
EndSplineSet
EndChar

StartChar: b
Encoding: 98 98 65
Width: 1075
VWidth: 2334
GlyphClass: 2
Flags: MW
LayerCount: 2
Fore
SplineSet
215 1400 m 25
 215 0 l 25
215 597 m 10
 215 427 l 18
 215 201 354 80 528 80 c 10
 548 80 l 18
 756 80 860 201 860 427 c 10
 860 597 l 18
 860 821 756 944 548 944 c 10
 528 944 l 18
 320 944 215 821 215 597 c 10
EndSplineSet
EndChar

StartChar: c
Encoding: 99 99 66
Width: 1075
VWidth: 2334
GlyphClass: 2
Flags: MW
LayerCount: 2
Fore
SplineSet
843 798 m 5
 806 904 708 943 548 943 c 14
 528 943 l 22
 320 943 215 821 215 597 c 14
 215 427 l 22
 215 201 354 80 528 80 c 14
 548 80 l 22
 706 80 803 118 842 220 c 5
EndSplineSet
EndChar

StartChar: d
Encoding: 100 100 67
Width: 1075
VWidth: 1947
GlyphClass: 2
Flags: MW
LayerCount: 2
Fore
SplineSet
860 1400 m 29
 860 0 l 29
215 597 m 14
 215 427 l 22
 215 201 354 80 528 80 c 14
 548 80 l 22
 756 80 860 201 860 427 c 14
 860 597 l 22
 860 821 756 944 548 944 c 14
 528 944 l 22
 320 944 215 821 215 597 c 14
EndSplineSet
EndChar

StartChar: e
Encoding: 101 101 68
Width: 1075
VWidth: 1947
GlyphClass: 2
Flags: MW
LayerCount: 2
Fore
SplineSet
215 561 m 25
 860 561 l 25
 860 687 l 18
 860 866 756 944 548 944 c 10
 528 944 l 18
 320 944 215 866 215 687 c 10
 215 337 l 18
 215 156 320 80 528 80 c 10
 548 80 l 18
 712 80 812 123 846 234 c 1
EndSplineSet
EndChar

StartChar: f
Encoding: 102 102 69
Width: 1075
VWidth: 1947
GlyphClass: 2
Flags: MW
LayerCount: 2
Fore
SplineSet
109 824 m 29
 860 824 l 29
860 1153 m 21
 860 1176 854 1198 843 1218 c 5
 809 1282 731 1320 652 1320 c 14
 632 1320 l 22
 528 1320 424 1242 424 1152 c 6
 424 0 l 13
EndSplineSet
EndChar

StartChar: g
Encoding: 103 103 70
Width: 1075
VWidth: 1947
GlyphClass: 2
Flags: MW
LayerCount: 2
Fore
SplineSet
335 446 m 1
 273 415 224 347 224 281 c 1
 224 245 l 1
 224 180 270 115 330 83 c 1
807 880 m 1
 842 926 897 959 955 959 c 9
548 115 m 10
 528 115 l 18
 372 115 215 14 215 -87 c 10
 215 -107 l 18
 215 -220 372 -309 528 -309 c 10
 548 -309 l 18
 704 -309 860 -220 860 -107 c 10
 860 -87 l 18
 860 4 704 115 548 115 c 10
548 944 m 14
 528 944 l 22
 372 944 215 821 215 687 c 14
 215 661 l 22
 215 521 372 391 528 391 c 14
 548 391 l 22
 704 391 860 520 860 661 c 14
 860 687 l 22
 860 821 704 944 548 944 c 14
EndSplineSet
EndChar

StartChar: h
Encoding: 104 104 71
Width: 1075
VWidth: 2334
GlyphClass: 2
Flags: MW
LayerCount: 2
Fore
SplineSet
860 0 m 29
 860 687 l 22
 860 866 756 944 548 944 c 14
 528 944 l 22
 345 944 215 731 215 597 c 14
 215 513 l 29
215 1400 m 29
 215 0 l 29
EndSplineSet
EndChar

StartChar: k
Encoding: 107 107 74
Width: 1075
VWidth: 1947
GlyphClass: 2
Flags: MW
LayerCount: 2
Back
SplineSet
5 1425 m 5
 1071 1425 l 5
 1071 0 l 5
 5 0 l 5
 5 1425 l 5
EndSplineSet
Fore
SplineSet
967 -156 m 25
 446 621 l 25
860 1063 m 25
 217 384 l 25
215 1425 m 25
 215 0 l 25
EndSplineSet
EndChar

StartChar: l
Encoding: 108 108 75
Width: 1075
VWidth: 1947
GlyphClass: 2
Flags: MW
LayerCount: 2
Fore
SplineSet
215 105 m 25
 860 105 l 25
538 92 m 17
215 1295 m 25
 538 1295 l 25
 538 105 l 25
EndSplineSet
EndChar

StartChar: m
Encoding: 109 109 76
Width: 1075
VWidth: 2334
GlyphClass: 2
Flags: MW
LayerCount: 2
Fore
SplineSet
907 0 m 25
 907 777 l 18
 907 908 845 944 751 944 c 10
 739 944 l 18
 626 944 538 821 538 687 c 10
 538 603 l 25
538 0 m 25
 538 777 l 18
 538 908 477 944 382 944 c 10
 370 944 l 18
 257 944 169 821 169 687 c 10
 169 603 l 25
169 1024 m 25
 169 0 l 25
EndSplineSet
EndChar

StartChar: n
Encoding: 110 110 77
Width: 1075
VWidth: 2334
GlyphClass: 2
Flags: W
LayerCount: 2
Fore
SplineSet
860 0 m 29
 860 687 l 22
 860 866 756 944 548 944 c 14
 528 944 l 22
 345 944 215 731 215 597 c 14
 215 513 l 29
215 1024 m 29
 215 0 l 29
EndSplineSet
EndChar

StartChar: o
Encoding: 111 111 78
Width: 1075
VWidth: 1947
GlyphClass: 2
Flags: MW
LayerCount: 2
Fore
SplineSet
538 943 m 7
 781 943 872 780 872 513 c 7
 872 244 781 80 538 80 c 7
 295 80 204 244 204 513 c 7
 204 781 295 943 538 943 c 7
EndSplineSet
EndChar

StartChar: p
Encoding: 112 112 79
Width: 1075
VWidth: 1947
GlyphClass: 2
Flags: MW
LayerCount: 2
Fore
SplineSet
215 597 m 14
 215 427 l 22
 215 201 354 80 528 80 c 14
 548 80 l 22
 756 80 860 201 860 427 c 14
 860 597 l 22
 860 821 756 944 548 944 c 14
 528 944 l 22
 320 944 215 821 215 597 c 14
215 1024 m 29
 215 -385 l 29
EndSplineSet
EndChar

StartChar: q
Encoding: 113 113 80
Width: 1075
VWidth: 1947
GlyphClass: 2
Flags: MW
LayerCount: 2
Fore
SplineSet
860 1024 m 25
 860 -385 l 25
215 597 m 10
 215 427 l 18
 215 201 354 80 528 80 c 10
 548 80 l 18
 756 80 860 201 860 427 c 10
 860 597 l 18
 860 821 756 944 548 944 c 10
 528 944 l 18
 320 944 215 821 215 597 c 10
EndSplineSet
EndChar

StartChar: r
Encoding: 114 114 81
Width: 1075
VWidth: 1947
GlyphClass: 2
Flags: MW
LayerCount: 2
Fore
SplineSet
868 832 m 5
 826 905 753 944 629 944 c 14
 609 944 l 22
 400 944 215 694.005 215 470 c 14
 215 0 l 29
 215 1024 l 29
EndSplineSet
EndChar

StartChar: s
Encoding: 115 115 82
Width: 1075
VWidth: 1947
GlyphClass: 2
Flags: MW
LayerCount: 2
Fore
SplineSet
860 687 m 21
 860 718 852 749 838 778 c 5
 789 877 669 944 548 944 c 14
 528 944 l 22
 372 944 215 920 215 757 c 6
 215 745 l 6
 215 692 254 649 320 625 c 6
 754 451 l 6
 823 423 860 368 860 301 c 6
 860 287 l 6
 860 151 704 80 548 80 c 14
 493 80 l 22
 336 80 181 203 181 337 c 12
EndSplineSet
EndChar

StartChar: t
Encoding: 116 116 83
Width: 1075
VWidth: 1947
GlyphClass: 2
Flags: MW
LayerCount: 2
Back
SplineSet
5 1425 m 5
 1071 1425 l 5
 1071 -84 l 5
 5 -84 l 5
 5 1425 l 5
EndSplineSet
Fore
SplineSet
109 903 m 25
 860 903 l 25
837 247 m 17
 837 225 831 203 820 182 c 1
 786 119 708 80 629 80 c 10
 609 80 l 18
 504 80 395 159 400 248 c 2
 473 1506 l 9
EndSplineSet
EndChar

StartChar: u
Encoding: 117 117 84
Width: 1075
VWidth: 2334
GlyphClass: 2
Flags: MW
LayerCount: 2
Fore
SplineSet
215 1024 m 29
 215 337 l 22
 215 158 296 80 504 80 c 14
 525 80 l 22
 708 80 860 313 860 447 c 14
 860 531 l 29
860 0 m 29
 860 1024 l 29
EndSplineSet
EndChar

StartChar: v
Encoding: 118 118 85
Width: 1075
VWidth: 1947
GlyphClass: 2
Flags: MW
LayerCount: 2
Back
SplineSet
5 1024 m 5
 1071 1024 l 5
 1071 -25 l 5
 5 -25 l 5
 5 1024 l 5
EndSplineSet
Fore
SplineSet
109 1297 m 25
 538 80 l 25
 967 1295 l 25
EndSplineSet
EndChar

StartChar: w
Encoding: 119 119 86
Width: 1075
VWidth: 1947
GlyphClass: 2
Flags: MW
LayerCount: 2
Back
SplineSet
5 1024 m 5
 372 1024 l 5
 372 919 l 5
 710 919 l 5
 711 1024 l 5
 1071 1024 l 5
 1071 0 l 5
 5 0 l 5
 5 1024 l 5
EndSplineSet
Fore
SplineSet
116 1099 m 25
 239 105 l 25
 538 823 l 25
 837 105 l 25
 960 1100 l 25
EndSplineSet
EndChar

StartChar: x
Encoding: 120 120 87
Width: 1075
VWidth: 1947
GlyphClass: 2
Flags: MW
LayerCount: 2
Back
SplineSet
5 1024 m 5
 1071 1024 l 5
 1071 0 l 5
 5 0 l 5
 5 1024 l 5
EndSplineSet
Fore
SplineSet
907 1098 m 25
 169 -74 l 25
169 1098 m 25
 907 -75 l 25
EndSplineSet
EndChar

StartChar: y
Encoding: 121 121 88
Width: 1075
VWidth: 1947
GlyphClass: 2
Flags: MW
LayerCount: 2
Back
SplineSet
5 -410 m 5
 5 1024 l 5
 1071 1024 l 5
 1071 -410 l 5
 5 -410 l 5
EndSplineSet
Fore
SplineSet
967 1295 m 1
 592 -110 l 2
 564 -216 493 -294 380 -294 c 1
 296 -294 213 -239 181 -170 c 1
 172 -150 167 -130 167 -110 c 9
652 126 m 9
 109 1238 l 25
EndSplineSet
EndChar

StartChar: z
Encoding: 122 122 89
Width: 1075
VWidth: 1947
GlyphClass: 2
Flags: MW
LayerCount: 2
Back
SplineSet
106 1049 m 5
 973 1049 l 5
 973 -25 l 5
 106 -25 l 5
 106 1049 l 5
EndSplineSet
Fore
SplineSet
167 919 m 25
 860 919 l 25
 215 105 l 25
 990 105 l 25
EndSplineSet
EndChar

StartChar: braceleft
Encoding: 123 123 90
Width: 1075
VWidth: 1947
GlyphClass: 2
Flags: MW
LayerCount: 2
Fore
SplineSet
817 1480 m 17
 697 1480 l 2
 547 1480 427 1360 427 1210 c 2
 427 970 l 2
 427 830 349 700 197 700 c 2
 167 700 l 1
 197 700 l 2
 349 700 427 570 427 430 c 2
 427 190 l 2
 427 40 547 -80 697 -80 c 10
 817 -80 l 9
EndSplineSet
EndChar

StartChar: bar
Encoding: 124 124 91
Width: 1075
VWidth: 1947
GlyphClass: 2
Flags: MW
LayerCount: 2
Fore
SplineSet
538 -77 m 29
 538 1477 l 29
EndSplineSet
EndChar

StartChar: braceright
Encoding: 125 125 92
Width: 1075
VWidth: 1947
GlyphClass: 2
Flags: MW
LayerCount: 2
Fore
SplineSet
167 1480 m 17
 287 1480 l 2
 437 1480 557 1360 557 1210 c 2
 557 970 l 2
 557 830 635 700 787 700 c 2
 817 700 l 1
 787 700 l 2
 635 700 557 570 557 430 c 2
 557 190 l 2
 557 40 437 -80 287 -80 c 10
 167 -80 l 9
EndSplineSet
EndChar

StartChar: asciitilde
Encoding: 126 126 93
Width: 1075
VWidth: 1947
GlyphClass: 2
Flags: MW
LayerCount: 2
Fore
SplineSet
216 800 m 21
 247 908 321 977 394 977 c 14
 409 977 l 22
 438.255 977 467.521 959.637 494 933.3 c 6
 587 840.8 l 6
 611.729 816.204 639.589 801 667 801 c 14
 682 801 l 22
 763 801 831 886 861 977 c 13
EndSplineSet
EndChar

StartChar: cent
Encoding: 162 162 96
Width: 1075
VWidth: 2334
GlyphClass: 2
Flags: MW
LayerCount: 2
Fore
SplineSet
435 -110 m 25
 709 1197 l 25
843 798 m 1
 806 904 708 943 548 943 c 10
 528 943 l 18
 320 943 215 821 215 597 c 10
 215 427 l 18
 215 201 354 80 528 80 c 10
 548 80 l 18
 706 80 803 118 842 220 c 1
EndSplineSet
EndChar

StartChar: sterling
Encoding: 163 163 97
Width: 1075
VWidth: 1947
GlyphClass: 2
Flags: MW
LayerCount: 2
Fore
SplineSet
86 699 m 21
 837 699 l 13
860 1063 m 17
 857 1113 839 1160 809 1200 c 1
 752 1280 652 1320 548 1320 c 10
 528 1320 l 18
 372 1320 215 1197 215 1063 c 10
 215 1024 l 18
 215 973 236 919 267 864 c 2
 375 678 l 2
 406 625 424 570 424 516 c 10
 424 470 l 18
 424 305 266 156 146 89 c 2
 109 68 l 1
 146 89 l 2
 265 155 324 156 424 156 c 10
 457 156 l 18
 497 156 529 147 556 131 c 2
 640 97 l 2
 660 87 681 80 704 80 c 10
 756 80 l 18
 830 80 917 108 955 147 c 9
EndSplineSet
EndChar

StartChar: euro
Encoding: 8364 8364 98
Width: 1075
VWidth: 1947
GlyphClass: 2
Flags: MW
LayerCount: 2
Fore
SplineSet
714 565 m 25
 74 565 l 25
864 875 m 25
 109 875 l 25
901 204 m 1
 850 120 750 80 634 80 c 3
 384 80 304 333 304 579 c 2
 304 864 l 2
 304 1118.01 400 1320 634 1320 c 3
 750 1320 851 1282 901 1200 c 1
EndSplineSet
EndChar

StartChar: yen
Encoding: 165 165 99
Width: 1075
VWidth: 1947
GlyphClass: 2
Flags: MW
LayerCount: 2
Back
SplineSet
5 1400 m 5
 1071 1400 l 5
 1071 -160 l 5
 5 -160 l 5
 5 1400 l 5
EndSplineSet
Fore
SplineSet
109 155 m 17
 967 155 l 9
109 512 m 17
 967 512 l 9
907 1480 m 17
 538 513 l 1
 538 -185 l 9
169 1480 m 25
 538 513 l 25
EndSplineSet
EndChar

StartChar: section
Encoding: 167 167 101
Width: 1075
VWidth: 1947
GlyphClass: 2
Flags: MW
LayerCount: 2
Fore
SplineSet
300 79 m 1
 344 -11 452 -94 561 -94 c 10
 580 -94 l 18
 721 -94 860 22 860 149 c 10
 860 172 l 18
 860 293 688 415 547 415 c 10
 529 415 l 18
772 1322 m 1
 727 1408 621 1490 515 1490 c 10
 496 1490 l 18
 355 1490 215 1368 215 1247 c 10
 215 1224 l 18
 215 1098 388 968 529 968 c 10
 547 968 l 18
548 968 m 10
 528 968 l 18
 372 968 215 845 215 711 c 10
 215 685 l 18
 215 545 372 415 528 415 c 10
 548 415 l 18
 704 415 860 544 860 685 c 10
 860 711 l 18
 860 845 704 968 548 968 c 10
EndSplineSet
EndChar

StartChar: copyright
Encoding: 169 169 103
Width: 1075
VWidth: 1947
GlyphClass: 2
Flags: MW
LayerCount: 2
Fore
SplineSet
538 1064.55 m 3
 841 1064.55 996 854.1 996 609.15 c 3
 996 372.25 841 151.45 538 151.45 c 3
 239 151.45 80 364.2 80 609.15 c 3
 80 857.55 243 1064.55 538 1064.55 c 3
707 447 m 1
 669 406.75 612 380.3 538 380.3 c 3
 388 380.3 309 486.1 309 608 c 3
 309 733.35 391 835.7 538 835.7 c 3
 612 835.7 668 811.55 706 771.3 c 1
EndSplineSet
EndChar

StartChar: ordfeminine
Encoding: 170 170 104
Width: 1075
VWidth: 1947
GlyphClass: 2
Flags: MW
LayerCount: 2
Fore
SplineSet
109 319 m 17
 967 319 l 9
812 1013 m 25
 529 1013 l 18
 352 1013 264 898 264 823 c 10
 264 784 l 18
 264 707 352 593 529 593 c 10
 547 593 l 18
 679 593 812 745 812 823 c 9
287 1235 m 1
 324 1311 404 1337 529 1337 c 10
 547 1337 l 18
 724 1337 812 1272 812 1120 c 10
 812 536 l 25
EndSplineSet
EndChar

StartChar: guillemotleft
Encoding: 171 171 105
Width: 1075
VWidth: 1947
GlyphClass: 2
Flags: MW
LayerCount: 2
Fore
SplineSet
849 156 m 25
 669 425 l 25
 669 512 l 25
 849 782 l 25
429 156 m 25
 249 425 l 25
 249 512 l 25
 429 782 l 25
EndSplineSet
EndChar

StartChar: logicalnot
Encoding: 172 172 106
Width: 1075
VWidth: 1708
GlyphClass: 2
Flags: MW
LayerCount: 2
Fore
SplineSet
127 600 m 29
 817 600 l 29
 817 246 l 29
EndSplineSet
EndChar

StartChar: softhyphen
Encoding: 173 173 107
Width: 1075
VWidth: 1947
GlyphClass: 2
Flags: MW
LayerCount: 2
Fore
SplineSet
299 600 m 25
 777 600 l 25
EndSplineSet
EndChar

StartChar: registered
Encoding: 174 174 108
Width: 1075
VWidth: 1947
GlyphClass: 2
Flags: MW
LayerCount: 2
Fore
SplineSet
722 339.15 m 25
 563 596.75 l 25
391 599.05 m 25
 555 599.05 l 2
 658 599.05 710 632.4 710 701.4 c 2
 710 741.65 l 2
 710 810.65 664 834.8 555 834.8 c 2
 391 834.8 l 1
 391 339.15 l 1
538 1064.55 m 3
 841 1064.55 996 854.1 996 609.15 c 3
 996 372.25 841 151.45 538 151.45 c 3
 239 151.45 80 364.2 80 609.15 c 3
 80 857.55 243 1064.55 538 1064.55 c 3
EndSplineSet
EndChar

StartChar: degree
Encoding: 176 176 110
Width: 1075
VWidth: 1947
GlyphClass: 2
Flags: MW
LayerCount: 2
Fore
SplineSet
538 1333 m 3
 687 1333 763 1229 763 1108 c 3
 763 991 687 882 538 882 c 3
 391 882 313 987 313 1108 c 3
 313 1231 393 1333 538 1333 c 3
EndSplineSet
EndChar

StartChar: plusminus
Encoding: 177 177 111
Width: 1075
VWidth: 1947
GlyphClass: 2
Flags: MW
LayerCount: 2
Fore
SplineSet
127 140 m 25
 949 140 l 25
538 419 m 25
 538 1241 l 25
127 830 m 25
 949 830 l 25
EndSplineSet
EndChar

StartChar: twosuperior
Encoding: 178 178 112
Width: 1075
VWidth: 2334
GlyphClass: 2
Flags: MW
LayerCount: 2
Back
SplineSet
307 -25 m 5
 307 1479 l 5
 999 1479 l 5
 999 -25 l 5
 307 -25 l 5
EndSplineSet
Fore
SplineSet
411 1232 m 1
 437 1292 469 1333 554 1333 c 10
 564 1333 l 18
 663 1333 712 1283 712 1185 c 10
 712 1163 l 18
 712 1131 693 1093 662 1052 c 2
 480 811 l 2
 444 764 421 707 405 650 c 1
 763 650 l 9
EndSplineSet
EndChar

StartChar: threesuperior
Encoding: 179 179 113
Width: 1075
VWidth: 2334
GlyphClass: 2
Flags: MW
LayerCount: 2
Fore
SplineSet
365.74 1231.9 m 5
 392.141 1290.2 462.1 1328.15 532.06 1328.15 c 14
 543.94 1328.15 l 22
 633.04 1328.15 692.44 1264.9 692.44 1179.65 c 14
 692.44 1157.1 l 22
 692.44 1096.6 633.04 1022.35 544.6 1022.35 c 5
 433.06 1022.35 l 13
 543.94 1022.35 l 22
 662.74 1022.35 722.141 947.55 722.141 824.35 c 14
 722.141 813.35 l 22
 722.141 692.35 662.74 631.85 543.94 631.85 c 14
 532.06 631.85 l 22
 451.54 631.85 353.859 680.8 353.859 780.35 c 5
EndSplineSet
EndChar

StartChar: micro
Encoding: 181 181 115
Width: 1075
VWidth: 2334
GlyphClass: 2
Flags: MW
LayerCount: 2
Fore
SplineSet
168 -348 m 17
 210 -237 215 -174 215 -25 c 10
 215 516 l 25
215 1024 m 25
 215 397 l 18
 215 218 320 80 528 80 c 10
 548 80 l 18
 731 80 860 263 860 397 c 10
 860 531 l 25
895 -40 m 17
 875 14 860 53 860 116 c 2
 860 1024 l 9
EndSplineSet
EndChar

StartChar: paragraph
Encoding: 182 182 116
Width: 1075
VWidth: 1947
GlyphClass: 2
Flags: MW
LayerCount: 2
Fore
SplineSet
322 890 m 25
 322 1240 l 25
860 0 m 25
 860 1400 l 25
 444 1400 l 25
444 727 m 25
 424 727 l 2
 320 727 181 795 181 1057 c 2
 181 1095 l 2
 181 1281 314 1400 424 1400 c 2
 444 1400 l 1
 444 0 l 1
EndSplineSet
EndChar

StartChar: periodcentered
Encoding: 183 183 117
Width: 1075
VWidth: 1947
GlyphClass: 2
Flags: MW
LayerCount: 2
Fore
SplineSet
667 747 m 0
 667 678 614 617 537 617 c 0
 463 617 408 677 408 747 c 0
 408 815 459 877 537 877 c 0
 613 877 667 817 667 747 c 0
EndSplineSet
EndChar

StartChar: onesuperior
Encoding: 185 185 119
Width: 1075
VWidth: 1708
GlyphClass: 2
Flags: MW
LayerCount: 2
Back
SplineSet
234 825 m 5
 442 1045 l 5
 442 1148 l 5
 390 1204 l 5
 582 1425 l 5
 842 1425 l 5
 842 627 l 5
 234 627 l 5
 234 825 l 5
EndSplineSet
Fore
SplineSet
603 641 m 25
 603 1374 l 25
 331 1172 l 25
EndSplineSet
EndChar

StartChar: ordmasculine
Encoding: 186 186 120
Width: 1075
VWidth: 1947
GlyphClass: 2
Flags: MW
LayerCount: 2
Fore
SplineSet
109 319 m 17
 967 319 l 9
538 1340 m 7
 745 1340 822 1191 822 964 c 7
 822 735 745 598 538 598 c 7
 331 598 254 735 254 964 c 7
 254 1191 331 1340 538 1340 c 7
EndSplineSet
EndChar

StartChar: guillemotright
Encoding: 187 187 121
Width: 1075
VWidth: 1947
GlyphClass: 2
Flags: MW
LayerCount: 2
Fore
SplineSet
227 156 m 25
 407 425 l 25
 407 512 l 25
 227 782 l 25
647 156 m 25
 827 425 l 25
 827 512 l 25
 647 782 l 25
EndSplineSet
EndChar

StartChar: OE
Encoding: 338 338 122
Width: 1075
VWidth: 1947
GlyphClass: 2
Flags: MW
LayerCount: 2
Fore
SplineSet
954 105 m 17
 607 105 l 1
 607 276 l 1
 607 1124 l 2
 607 1295 l 1
 954 1295 l 1
876 732 m 1
 627 732 l 1
122 1124 m 2
 122 1217 215 1295 335 1295 c 2
 399 1295 l 2
 506 1295 607 1222 607 1124 c 2
 607 276 l 2
 607 182 506 105 399 105 c 2
 335 105 l 2
 215 105 122 185 122 276 c 10
 122 1124 l 2
EndSplineSet
EndChar

StartChar: oe
Encoding: 339 339 123
Width: 1075
VWidth: 1947
GlyphClass: 2
Flags: MW
LayerCount: 2
Fore
SplineSet
954 251 m 3
 954 147 858 80 746 80 c 3
 640 80 538 153 538 251 c 2
 538 773 l 2
 538 867 640 944 746 944 c 3
 860 944 954 878 954 773 c 10
 954 542 l 1
 538 542 l 1
122 773 m 2
 122 876 218 944 330 944 c 3
 436 944 538 871 538 773 c 2
 538 251 l 2
 538 157 436 80 330 80 c 3
 215 80 122 147 122 251 c 10
 122 773 l 2
EndSplineSet
EndChar

StartChar: AE
Encoding: 198 198 132
Width: 1075
VWidth: 1947
GlyphClass: 2
Flags: MW
LayerCount: 2
Back
SplineSet
5 0 m 5
 5 1425 l 5
 1071 1425 l 5
 1071 0 l 5
 5 0 l 5
EndSplineSet
Fore
SplineSet
95 -90 m 17
 311 1136 l 2
 327 1231 414 1295 539 1295 c 10
 607 1295 l 25
954 105 m 17
 607 105 l 1
 607 1295 l 1
 954 1295 l 1
895 732 m 1
 237 732 l 1
EndSplineSet
EndChar

StartChar: Eth
Encoding: 208 208 142
Width: 1075
VWidth: 1947
GlyphClass: 2
Flags: MW
LayerCount: 2
Fore
SplineSet
54 756 m 25
 528 756 l 25
538 1295 m 2
 824 1295 872 1025 872 700 c 3
 872 369 817 105 538 105 c 2
 262 105 l 1
 262 1295 l 1
 538 1295 l 2
EndSplineSet
EndChar

StartChar: multiply
Encoding: 215 215 149
Width: 1075
VWidth: 1708
GlyphClass: 2
Flags: MW
LayerCount: 2
Fore
SplineSet
829 309 m 25
 247 891 l 25
247 309 m 25
 829 891 l 25
EndSplineSet
EndChar

StartChar: Thorn
Encoding: 222 222 156
Width: 1075
VWidth: 1947
GlyphClass: 2
Flags: MW
LayerCount: 2
Fore
SplineSet
215 445 m 25
 548 445 l 2
 756 445 860 534 860 715 c 2
 860 940 l 2
 860 1119 767 1198 548 1198 c 2
 215 1198 l 1
215 1540 m 1
 215 0 l 1
EndSplineSet
EndChar

StartChar: germandbls
Encoding: 223 223 157
Width: 1075
VWidth: 1947
GlyphClass: 2
Flags: MW
LayerCount: 2
Fore
SplineSet
215 -388 m 1
 215 1064 l 2
 215 1242 320 1320 528 1320 c 2
 548 1320 l 2
 710 1320 803 1242 803 1063 c 2
 803 1025 l 2
 803 844 699 755 491 755 c 2
 470 755 l 25
 548 755 l 18
 756 755 860 664 860 485 c 10
 860 337 l 18
 860 156 756 80 600 80 c 2
 591 80 l 2
 528 80 481 78 437 114 c 1
EndSplineSet
EndChar

StartChar: ae
Encoding: 230 230 164
Width: 1075
VWidth: 1947
GlyphClass: 2
Flags: MW
LayerCount: 2
Fore
SplineSet
954 251 m 7
 954 147 858 80 746 80 c 7
 640 80 538 153 538 251 c 6
 538 773 l 6
 538 868 640 944 746 944 c 7
 861 944 954 878 954 773 c 14
 954 542 l 5
 335 542 l 6
 215 542 122 462 122 358 c 6
 122 251 l 22
 122 147 215 80 330 80 c 7
 436 80 538 157 538 251 c 6
 538 773 l 6
 538 871 436 944 330 944 c 7
 218 944 122 877 122 773 c 7
EndSplineSet
EndChar

StartChar: eth
Encoding: 240 240 174
Width: 1075
VWidth: 1947
GlyphClass: 2
Flags: W
VStem: 182 558<220.939 427 497 723.211>
LayerCount: 2
Fore
SplineSet
217 1099 m 25
 893 1309 l 25
860 430 m 25
 860 620 l 18
 860 909 570 1252 320 1432 c 9
215 457 m 10
 215 427 l 18
 215 201 354 80 528 80 c 10
 548 80 l 18
 756 80 860 201 860 427 c 10
 860 457 l 18
 860 681 756 817 548 817 c 10
 528 817 l 18
 320 817 215 681 215 457 c 10
EndSplineSet
EndChar

StartChar: divide
Encoding: 247 247 181
Width: 1075
VWidth: 1947
GlyphClass: 2
Flags: MW
LayerCount: 2
Fore
SplineSet
127 600 m 25
 949 600 l 25
692 960 m 0
 692 890 632 813 548 813 c 0
 456 813 400 897 400 960 c 0
 400 1023 456 1107 548 1107 c 0
 632 1107 692 1030 692 960 c 0
692 243 m 0
 692 170 633 96 548 96 c 0
 464 96 400 173 400 243 c 0
 400 308 461 387 548 387 c 0
 635 387 692 308 692 243 c 0
EndSplineSet
EndChar

StartChar: oslash
Encoding: 248 248 182
Width: 1075
VWidth: 1947
GlyphClass: 2
Flags: MW
LayerCount: 2
Fore
SplineSet
172 -48 m 25
 910 1062 l 25
538 943 m 3
 781 943 872 780 872 513 c 3
 872 244 781 80 538 80 c 3
 295 80 204 244 204 513 c 3
 204 781 295 943 538 943 c 3
EndSplineSet
EndChar

StartChar: thorn
Encoding: 254 254 188
Width: 1075
VWidth: 1947
GlyphClass: 2
Flags: MW
LayerCount: 2
Fore
SplineSet
215 -387 m 29
 215 1400 l 29
538 943 m 7
 781 943 872 780 872 513 c 7
 872 244 781 80 538 80 c 7
 340 80 215 183 215 374 c 6
 215 653 l 6
 215 841 341 943 538 943 c 7
EndSplineSet
EndChar

StartChar: minus
Encoding: 8722 8722 190
Width: 1075
VWidth: 1708
GlyphClass: 2
Flags: MW
LayerCount: 2
Fore
SplineSet
50 600 m 29
 1025 600 l 25
EndSplineSet
EndChar

StartChar: quoteleft
Encoding: 8216 8216 192
Width: 1075
VWidth: 1947
GlyphClass: 2
Flags: W
HStem: 1353 74<553.724 603.875>
VStem: 324 259<966.306 1083.15>
LayerCount: 2
Fore
SplineSet
403 1064 m 21
 403 1195 417 1399 679 1427 c 13
 699 1353 l 21
 630 1328 515 1251 618 1162 c 13
 403 1064 l 21
400 1064 m 4
 400 1133 453 1194 530 1194 c 4
 604 1194 659 1134 659 1064 c 4
 659 996 608 934 530 934 c 4
 454 934 400 994 400 1064 c 4
EndSplineSet
EndChar

StartChar: gravemodifier
Encoding: 715 715 193
Width: 1075
VWidth: 2334
GlyphClass: 2
Flags: MW
LayerCount: 2
Fore
SplineSet
469 1647 m 25
 667 1438 l 25
EndSplineSet
EndChar

StartChar: acute
Encoding: 180 180 194
Width: 1075
VWidth: 1947
GlyphClass: 2
Flags: MW
LayerCount: 2
Fore
SplineSet
638 1587 m 25
 439 1308 l 25
EndSplineSet
EndChar

StartChar: circumflex
Encoding: 710 710 195
Width: 1075
VWidth: 1947
GlyphClass: 2
Flags: MW
LayerCount: 2
Back
SplineSet
77 700 m 5
 77 1638 l 5
 999 1638 l 5
 999 700 l 5
 77 700 l 5
EndSplineSet
Fore
SplineSet
338 1460 m 25
 538 1600 l 25
 738 1460 l 25
EndSplineSet
EndChar

StartChar: tilde
Encoding: 732 732 196
Width: 1075
VWidth: 1947
GlyphClass: 2
Flags: MW
LayerCount: 2
Fore
SplineSet
259 1502 m 21
 279 1527.55 l 6
 313.359 1571.44 351.987 1612 421 1612 c 14
 437 1612 l 22
 472.216 1612 505.901 1594.99 528 1575.76 c 6
 547 1558.89 l 6
 569.258 1539.39 602.831 1522 638 1522 c 14
 655 1522 l 22
 725 1522 764.659 1562 800 1609.27 c 6
 817 1632 l 13
EndSplineSet
EndChar

StartChar: macronmodifier
Encoding: 713 713 197
Width: 1075
VWidth: 1947
GlyphClass: 2
Flags: MW
LayerCount: 2
Fore
SplineSet
764 1538 m 1
 311 1538 l 1
EndSplineSet
EndChar

StartChar: breve
Encoding: 728 728 198
Width: 1075
VWidth: 1947
GlyphClass: 2
Flags: MW
LayerCount: 2
Fore
SplineSet
769.667 1592.64 m 0
 710.274 1523.12 627.028 1480 535.5 1480 c 3
 444.254 1480 363.068 1522.85 305.501 1592 c 0
EndSplineSet
EndChar

StartChar: dotaccent
Encoding: 729 729 199
Width: 1075
VWidth: 1947
GlyphClass: 2
Flags: W
HStem: 1407 240<440.761 626.103>
VStem: 414 240<1434.49 1619.51>
LayerCount: 2
Fore
SplineSet
414 1527 m 27
 414 1593 466 1647 533 1647 c 27
 599 1647 654 1593 654 1527 c 27
 654 1461 599 1407 533 1407 c 27
 466 1407 414 1461 414 1527 c 27
EndSplineSet
EndChar

StartChar: dieresis
Encoding: 168 168 200
Width: 1075
VWidth: 1947
GlyphClass: 2
Flags: MW
LayerCount: 2
Fore
SplineSet
434 1545 m 0
 434 1482 383 1426 321 1426 c 0
 260 1426 207 1479 207 1545 c 0
 207 1615 263 1660 320 1660 c 0
 385 1660 434 1606 434 1545 c 0
868 1545 m 0
 868 1476 813 1426 756 1426 c 0
 696 1426 643 1480 643 1545 c 0
 643 1611 696 1660 756 1660 c 0
 811 1660 868 1615 868 1545 c 0
EndSplineSet
EndChar

StartChar: ring
Encoding: 730 730 202
Width: 1075
VWidth: 1947
GlyphClass: 2
Flags: MW
LayerCount: 2
Fore
SplineSet
327.6 1425 m 27
 327.6 1537.2 415.6 1627.4 527.8 1627.4 c 27
 640 1627.4 732.4 1537.2 732.4 1425 c 27
 732.4 1312.8 640 1222.6 527.8 1222.6 c 27
 415.6 1222.6 327.6 1312.8 327.6 1425 c 27
438 1425 m 27
 438 1374 478 1333 529 1333 c 27
 580 1333 622 1374 622 1425 c 27
 622 1476 580 1517 529 1517 c 27
 478 1517 438 1476 438 1425 c 27
EndSplineSet
EndChar

StartChar: cedilla
Encoding: 184 184 203
Width: 1075
VWidth: 1947
GlyphClass: 2
Flags: MW
LayerCount: 2
Fore
SplineSet
575 18 m 17
 575 0 l 1
 566 -132 l 1
 707 -132 764 -191.082 764 -270 c 3
 764 -354.476 669.027 -411 578 -411 c 27
 494.055 -411 429 -379 377 -334 c 9
EndSplineSet
EndChar

StartChar: ogonek
Encoding: 731 731 204
Width: 1075
VWidth: 1947
GlyphClass: 2
Flags: MW
LayerCount: 2
Fore
SplineSet
683.889 -290.471 m 1
 656.998 -313.999 l 1
 634 -333 604.567 -344.8 572.6 -344.8 c 11
 501.946 -344.8 445.2 -286.653 445.2 -216 c 19
 445.2 -180.897 458.736 -149.178 480.982 -126 c 9
 607 0 l 25
 607 72 l 25
EndSplineSet
EndChar

StartChar: caron
Encoding: 711 711 205
Width: 1075
VWidth: 1947
GlyphClass: 2
Flags: MW
LayerCount: 2
Back
SplineSet
77 1422 m 5
 77 1776 l 5
 999 1776 l 5
 999 1422 l 5
 77 1422 l 5
EndSplineSet
Fore
SplineSet
338 1600 m 25
 538 1460 l 25
 738 1600 l 25
EndSplineSet
EndChar

StartChar: dotlessi
Encoding: 305 305 206
Width: 1075
VWidth: 1947
GlyphClass: 2
Flags: W
LayerCount: 2
Fore
SplineSet
215 105 m 29
 860 105 l 29
538 92 m 21
215 919 m 29
 538 919 l 29
 538 105 l 29
EndSplineSet
EndChar

StartChar: currency
Encoding: 164 164 210
Width: 1075
VWidth: 1947
GlyphClass: 2
Flags: MW
LayerCount: 2
Fore
SplineSet
928 381 m 17
 757 577 l 1
319 987 m 1
 148 1183 l 9
148 381 m 17
 320 578 l 1
757 987 m 1
 928 1183 l 9
547 1078 m 18
 688 1078 828 936 828 798 c 10
 828 770 l 18
 828 624 688 491 547 491 c 10
 529 491 l 18
 388 491 248 625 248 770 c 10
 248 798 l 18
 248 936 388 1078 529 1078 c 10
 547 1078 l 18
EndSplineSet
EndChar

StartChar: brokenbar
Encoding: 166 166 211
Width: 1075
VWidth: 1947
GlyphClass: 2
Flags: MW
LayerCount: 2
Fore
SplineSet
538 -77 m 17
 538 600 l 1
538 800 m 1
 538 1477 l 9
EndSplineSet
EndChar

StartChar: onequarter
Encoding: 188 188 212
Width: 1075
VWidth: 1708
GlyphClass: 2
Flags: MW
LayerCount: 2
Back
SplineSet
246 636 m 21
 -172 757 l 5
 -172 942 l 5
 69 1175 l 5
 69 1278 l 5
 9 1321 l 5
 231 1555 l 5
 536 1555 l 5
 537 1200 l 21
 810 1668 l 13
 1122 1473 l 21
 696 575 l 5
 1028 575 l 5
 1028 -209 l 5
 556 -209 l 5
 556 273.017 l 13
 333 -207 l 29
 -30 -69 l 29
 246 636 l 21
EndSplineSet
Fore
SplineSet
903 -209 m 25
 903 525 l 25
 581 39 l 25
 1004 39 l 25
255 771 m 25
 255 1504 l 25
 -60 1289 l 25
215 -25 m 25
 860 1425 l 25
EndSplineSet
EndChar

StartChar: onehalf
Encoding: 189 189 213
Width: 1075
VWidth: 1708
GlyphClass: 2
Flags: MW
LayerCount: 2
Back
SplineSet
-172 942 m 5
 69 1175 l 5
 69 1278 l 5
 9 1321 l 5
 231 1555 l 5
 531 1555 l 5
 531 1150.98 l 5
 783 1662 l 5
 1098 1521 l 5
 696.61 619 l 5
 1299 619 l 5
 1299 -345 l 5
 550 -345 l 5
 550 117 l 5
 297 -279 l 5
 -78 -84 l 5
 234 597 l 5
 -172 757 l 5
 -172 942 l 5
EndSplineSet
Fore
SplineSet
215 -25 m 25
 860 1425 l 25
255 771 m 25
 255 1504 l 25
 -60 1289 l 25
619 372 m 1
 649 432 686 473 784 473 c 10
 796 473 l 18
 910 473 967 423 967 325 c 10
 967 303 l 18
 967 271 944.845 233.136 909 192 c 2
 699 -49 l 2
 657 -96 630 -153 612 -210 c 1
 1026 -210 l 9
EndSplineSet
EndChar

StartChar: threequarters
Encoding: 190 190 214
Width: 1075
VWidth: 1708
GlyphClass: 2
Flags: MW
LayerCount: 2
Back
SplineSet
360 -177 m 5
 0 -174 l 5
 0 1674 l 5
 804 1674 l 5
 1075 1458 l 5
 747.982 575 l 5
 1028 575 l 5
 1028 -209 l 5
 556 -209 l 5
 556 279.06 l 5
 360 -177 l 5
EndSplineSet
Fore
SplineSet
215 -25 m 25
 860 1425 l 25
903 -209 m 25
 903 525 l 25
 581 39 l 25
 1004 39 l 25
104 1432 m 1
 132 1491 205 1529 278 1529 c 10
 290 1529 l 18
 383 1529 444 1452 444 1367 c 10
 444 1345 l 18
 444 1284 383 1223 291 1223 c 1
 291 1223 475 1148 475 1025 c 10
 475 1014 l 18
 475 893 413 832 290 832 c 10
 278 832 l 18
 194 832 92 868 92 968 c 1
EndSplineSet
EndChar

StartChar: Lslash
Encoding: 321 321 216
Width: 1075
VWidth: 1947
GlyphClass: 2
Flags: MW
LayerCount: 2
Fore
SplineSet
51 512 m 25
 747 698 l 25
215 1400 m 25
 215 106 l 25
 967 106 l 25
EndSplineSet
EndChar

StartChar: lslash
Encoding: 322 322 257
Width: 1075
VWidth: 1947
GlyphClass: 2
Flags: MW
LayerCount: 2
Fore
SplineSet
215 105 m 25
 860 105 l 25
538 92 m 17
215 1295 m 25
 538 1295 l 25
 538 105 l 25
190 512 m 25
 886 698 l 25
EndSplineSet
EndChar

StartChar: dotlessj
Encoding: 567 567 260
Width: 1075
VWidth: 1947
GlyphClass: 2
Flags: MW
LayerCount: 2
Fore
SplineSet
739 -110 m 22
 736 -229 657 -294 555 -294 c 31
 454 -294 371 -207 371 -110 c 7
314 919 m 29
 768 919 l 29
 768 -110 l 14
EndSplineSet
EndChar

StartChar: eng
Encoding: 331 331 261
Width: 1075
VWidth: 2334
GlyphClass: 2
Flags: MW
LayerCount: 2
Fore
SplineSet
387 -228 m 5
 427 -271 489 -294 554 -294 c 14
 613 -294 l 22
 768 -294 860 -170 860 -28 c 14
 860 687 l 22
 860 866 756 944 548 944 c 14
 528 944 l 22
 345 944 215 731 215 597 c 14
 215 513 l 29
215 1024 m 29
 215 0 l 29
EndSplineSet
EndChar

StartChar: ellipsis
Encoding: 8230 8230 266
Width: 1075
VWidth: 1947
GlyphClass: 2
Flags: MW
LayerCount: 2
Fore
SplineSet
989 113 m 0
 989 61 948 12 893 12 c 0
 840 12 798 59 798 113 c 0
 798 165 839 213 893 213 c 0
 949 213 989 162 989 113 c 0
277 113 m 0
 277 61 237 12 182 12 c 0
 128 12 87 59 87 113 c 0
 87 165 127 213 182 213 c 0
 237 213 277 162 277 113 c 0
633 113 m 0
 633 61 592 12 537 12 c 0
 484 12 443 59 443 113 c 0
 443 165 483 213 537 213 c 0
 593 213 633 162 633 113 c 0
EndSplineSet
EndChar

StartChar: uparrow
Encoding: 8593 8593 267
Width: 1075
VWidth: 1708
GlyphClass: 2
Flags: W
LayerCount: 2
Fore
SplineSet
999 -99 m 5
 77 -99 l 5
 77 1044 l 5
 999 1044 l 5
 999 -99 l 5
898 620 m 29
 538 991 l 29
 178 620 l 29
538 991 m 29
 538 209 l 29
EndSplineSet
EndChar

StartChar: downarrow
Encoding: 8595 8595 268
Width: 1075
VWidth: 1708
GlyphClass: 2
Flags: W
LayerCount: 2
Fore
SplineSet
999 156 m 1
 77 156 l 1
 77 1299 l 1
 999 1299 l 1
 999 156 l 1
898 580 m 25
 538 209 l 25
 178 580 l 25
538 209 m 25
 538 991 l 25
EndSplineSet
EndChar

StartChar: spaceopenbox
Encoding: 9251 9251 269
Width: 1075
VWidth: 1708
GlyphClass: 2
Flags: MW
LayerCount: 2
Fore
SplineSet
817 156 m 25
 817 -92 l 25
 182 -92 l 25
 182 156 l 25
EndSplineSet
EndChar

StartChar: uni2074
Encoding: 8308 8308 271
Width: 1075
VWidth: 1947
GlyphClass: 2
Flags: MW
LayerCount: 2
Back
SplineSet
142 1425 m 5
 921 1425 l 5
 921 544 l 5
 142 544 l 5
 142 1425 l 5
EndSplineSet
Fore
SplineSet
700 544 m 25
 700 1402 l 25
 211 807 l 25
 1010 807 l 25
EndSplineSet
EndChar

StartChar: Eng
Encoding: 330 330 273
Width: 1075
VWidth: 2334
GlyphClass: 2
Flags: MW
LayerCount: 2
Fore
SplineSet
387 -228 m 1
 427 -271 489 -294 554 -294 c 10
 613 -294 l 18
 768 -294 860 -170 860 -28 c 10
 860 1063 l 18
 860 1242 756 1320 548 1320 c 10
 528 1320 l 18
 345 1320 215 1094 215 960 c 10
 215 889 l 25
215 1400 m 25
 215 0 l 25
EndSplineSet
EndChar

StartChar: dcroat
Encoding: 273 273 274
Width: 1075
VWidth: 1947
GlyphClass: 2
Flags: W
LayerCount: 2
Fore
SplineSet
860 1400 m 25
 860 0 l 25
215 597 m 10
 215 427 l 18
 215 201 354 80 528 80 c 10
 548 80 l 18
 756 80 860 201 860 427 c 10
 860 597 l 18
 860 821 756 944 548 944 c 10
 528 944 l 18
 320 944 215 821 215 597 c 10
480 1252 m 25
 1015 1252 l 25
EndSplineSet
EndChar

StartChar: bullet
Encoding: 8226 8226 280
Width: 1075
VWidth: 1947
GlyphClass: 2
Flags: MW
LayerCount: 2
Fore
SplineSet
761 669 m 0
 761 569 661 466 537 466 c 0
 412 466 314 572 314 669 c 0
 314 772 418 869 537 869 c 0
 656 869 761 772 761 669 c 0
EndSplineSet
EndChar

StartChar: florin
Encoding: 402 402 281
Width: 1075
VWidth: 1947
GlyphClass: 2
Flags: MW
LayerCount: 2
Fore
SplineSet
966 1248 m 1
 928 1300 861 1320 785 1320 c 11
 668 1320 578 1249 573 1149 c 10
 503 -127 l 18
 497 -244 409 -311 291 -311 c 3
 227 -311 149 -278 108 -220 c 1
213 795 m 25
 897 795 l 25
EndSplineSet
EndChar

StartChar: dagger
Encoding: 8224 8224 282
Width: 1075
VWidth: 1947
GlyphClass: 2
Flags: MW
LayerCount: 2
Fore
SplineSet
538 1425 m 29
 538 -386 l 25
109 920 m 25
 967 920 l 25
EndSplineSet
EndChar

StartChar: daggerdbl
Encoding: 8225 8225 283
Width: 1075
VWidth: 1947
GlyphClass: 2
Flags: MW
LayerCount: 2
Fore
SplineSet
109 119 m 25
 967 119 l 25
538 1425 m 29
 538 -386 l 25
109 920 m 25
 967 920 l 25
EndSplineSet
EndChar

StartChar: trademark
Encoding: 8482 8482 284
Width: 1075
VWidth: 1947
GlyphClass: 2
Flags: MW
LayerCount: 2
Back
SplineSet
77 466 m 5
 77 1400 l 5
 999 1400 l 5
 999 466 l 5
 813 466 l 5
 813 519 l 5
 666 519 l 5
 666 466 l 5
 77 466 l 5
EndSplineSet
Fore
SplineSet
565 411 m 25
 565 1401 l 25
 738 615 l 25
 911 1401 l 25
 910 411 l 25
313 469 m 25
 313 1308 l 25
113 1308 m 25
 513 1308 l 25
EndSplineSet
EndChar

StartChar: Ecyrillic
Encoding: 1028 1028 290
Width: 1075
VWidth: 1708
GlyphClass: 2
Flags: W
HStem: -24 187<376.578 609.035> 636 187<271.795 631.272> 1025.62 21<649.176 745.286> 1203 186<383.896 583.125>
VStem: 85.271 186.195<312.104 636 823 1053.6>
LayerCount: 2
Fore
SplineSet
205 726 m 25
 623 726 l 25
828 310 m 0
 783 165 697 80 538 80 c 3
 251 80 204 384 204 700 c 3
 204 1025 255 1320 538 1320 c 3
 705 1320 790 1228 833 1076 c 0
EndSplineSet
EndChar

StartChar: Becyrillic
Encoding: 1041 1041 298
Width: 1075
VWidth: 1947
GlyphClass: 2
Flags: MW
LayerCount: 2
Fore
SplineSet
215 755 m 25
 548 755 l 2
 756 755 860 666 860 485 c 2
 860 312 l 2
 860 133 767 80 548 80 c 2
 215 80 l 1
 215 1295 l 9
 863 1295 l 25
EndSplineSet
EndChar

StartChar: Gecyrillic
Encoding: 1043 1043 299
Width: 1075
VWidth: 1947
GlyphClass: 2
Flags: MW
LayerCount: 2
Fore
SplineSet
215 0 m 25
 215 1295 l 25
 967 1295 l 25
EndSplineSet
EndChar

StartChar: Decyrillic
Encoding: 1044 1044 300
Width: 1075
VWidth: 1947
GlyphClass: 2
Flags: MW
LayerCount: 2
Back
SplineSet
5 1425 m 5
 1071 1425 l 5
 1071 150 l 5
 967 -190 l 5
 115 -190 l 5
 5 150 l 5
 5 1425 l 5
EndSplineSet
Fore
SplineSet
169 -162 m 17
 169 106 l 9
 907 106 l 17
 907 -162 l 9
250 106 m 17
 415 968 l 2
 442 1111 560 1247 701 1295 c 9
 837 1295 l 17
 837 106 l 9
EndSplineSet
EndChar

StartChar: Zhecyrillic
Encoding: 1046 1046 302
Width: 1075
VWidth: 1947
GlyphClass: 2
Flags: MW
LayerCount: 2
Back
SplineSet
5 1400 m 5
 1071 1400 l 5
 1071 0 l 5
 5 0 l 5
 5 1400 l 5
EndSplineSet
Fore
SplineSet
967 -85 m 25
 687 685 l 25
109 -85 m 25
 388 685 l 25
109 1500 m 25
 538 247 l 25
 967 1500 l 25
538 1320 m 25
 538 -20 l 25
EndSplineSet
EndChar

StartChar: Zecyrillic
Encoding: 1047 1047 303
Width: 1075
VWidth: 1947
GlyphClass: 2
Flags: MW
LayerCount: 2
Fore
SplineSet
213 1158 m 5
 259 1264 382 1320 504 1320 c 14
 548 1320 l 22
 704 1320 808 1218 808 1063 c 14
 808 1022 l 22
 808 912 704 777 550 777 c 5
 354 777 l 13
 548 777 l 22
 756 777 860 641 860 417 c 14
 860 397 l 22
 860 177 756 80 548 80 c 14
 504 80 l 22
 363 80 192 156 192 337 c 5
EndSplineSet
EndChar

StartChar: Iicyrillic
Encoding: 1048 1048 304
Width: 1075
VWidth: 1947
GlyphClass: 2
Flags: MW
LayerCount: 2
Back
SplineSet
5 1400 m 5
 1071 1400 l 5
 1071 0 l 5
 5 0 l 5
 5 1400 l 5
EndSplineSet
Fore
SplineSet
860 0 m 25
 860 1320 l 25
 215 79 l 25
 215 1400 l 25
EndSplineSet
EndChar

StartChar: Elcyrillic
Encoding: 1051 1051 307
Width: 1075
VWidth: 1947
GlyphClass: 2
Flags: MW
LayerCount: 2
Back
SplineSet
5 1425 m 5
 1071 1425 l 5
 1071 0 l 5
 5 0 l 5
 5 1425 l 5
EndSplineSet
Fore
SplineSet
147 -99 m 16
 404 968 l 2
 440 1109 560 1247 701 1295 c 9
 860 1295 l 25
 860 0 l 25
EndSplineSet
EndChar

StartChar: Pecyrillic
Encoding: 1055 1055 311
Width: 1075
VWidth: 1947
GlyphClass: 2
Flags: MW
LayerCount: 2
Fore
SplineSet
215 0 m 29
 215 1295 l 29
 860 1295 l 29
 860 0 l 29
EndSplineSet
EndChar

StartChar: Ucyrillic
Encoding: 1059 1059 315
Width: 1075
VWidth: 1947
GlyphClass: 2
Flags: MW
LayerCount: 2
Back
SplineSet
5 1400 m 5
 1071 1400 l 5
 1071 -40 l 5
 5 -40 l 5
 5 1400 l 5
EndSplineSet
Fore
SplineSet
907 1480 m 16
 559 246 l 2
 515 105 428 81 352 80 c 2
 320 80 l 2
 296 80 272 85 249 91 c 2
 215 103 l 9
169 1480 m 25
 619 459 l 25
EndSplineSet
EndChar

StartChar: Efcyrillic
Encoding: 1060 1060 316
Width: 1075
VWidth: 1947
GlyphClass: 2
Flags: MW
LayerCount: 2
Fore
SplineSet
538 1425 m 25
 538 -25 l 25
538 1223 m 3
 824 1223 930 1024 930 700 c 3
 930 369 817 187 538 187 c 3
 251 187 146 384 146 700 c 3
 146 1024 255 1223 538 1223 c 3
EndSplineSet
EndChar

StartChar: Tsecyrillic
Encoding: 1062 1062 318
Width: 1075
VWidth: 1947
GlyphClass: 2
Flags: MW
LayerCount: 2
Back
SplineSet
5 1400 m 5
 1011 1400 l 5
 1011 -302 l 5
 5 -302 l 5
 5 1400 l 5
EndSplineSet
Fore
SplineSet
781 106 m 25
 906 106 l 25
 771 -189 l 25
215 1400 m 25
 215 105 l 25
 780 105 l 17
 780 1400 l 9
EndSplineSet
EndChar

StartChar: Checyrillic
Encoding: 1063 1063 319
Width: 1075
VWidth: 1947
GlyphClass: 2
Flags: MW
LayerCount: 2
Fore
SplineSet
860 512 m 25
 528 512 l 2
 320 512 215 601 215 782 c 2
 215 1400 l 17
860 1400 m 1
 860 0 l 1
EndSplineSet
EndChar

StartChar: Shacyrillic
Encoding: 1064 1064 320
Width: 1075
VWidth: 1947
GlyphClass: 2
Flags: MW
LayerCount: 2
Fore
SplineSet
538 1152 m 17
 538 105 l 9
158 1400 m 25
 158 105 l 25
 918 105 l 25
 918 1400 l 25
EndSplineSet
EndChar

StartChar: Shchacyrillic
Encoding: 1065 1065 321
Width: 1075
VWidth: 1947
GlyphClass: 2
Flags: MW
LayerCount: 2
Back
SplineSet
5 1400 m 5
 1045 1400 l 5
 1045 -302 l 5
 5 -302 l 5
 5 1400 l 5
EndSplineSet
Fore
SplineSet
509 1152 m 17
 509 105 l 9
865 106 m 25
 940 106 l 25
 805 -189 l 25
158 1400 m 25
 158 105 l 25
 860 105 l 17
 860 1400 l 9
EndSplineSet
EndChar

StartChar: Hardsigncyrillic
Encoding: 1066 1066 322
Width: 1075
VWidth: 1947
GlyphClass: 2
Flags: W
HStem: 1405 20G<60 922>
VStem: 0 922<-60 680>
LayerCount: 2
Back
SplineSet
74 1425 m 5
 1071 1425 l 5
 1071 -60 l 5
 5 -60 l 5
 5 680 l 5
 167 682 l 5
 167 961 l 5
 74 961 l 5
 74 1425 l 5
EndSplineSet
Fore
SplineSet
389 715 m 25
 618 715 l 2
 756 715 860 626 860 445 c 2
 860 337 l 2
 860 158 756 105 618 105 c 2
 389 105 l 1
 389 1295 l 9
 155 1295 l 25
 10 864 l 25
EndSplineSet
EndChar

StartChar: Yericyrillic
Encoding: 1067 1067 323
Width: 1075
VWidth: 1947
GlyphClass: 2
Flags: MW
LayerCount: 2
Fore
SplineSet
895 1400 m 17
 895 0 l 9
181 765 m 29
 259 765 l 6
 467 765 572 676 572 495 c 6
 572 337 l 6
 572 158 478 105 259 105 c 6
 181 105 l 5
 181 1400 l 5
EndSplineSet
EndChar

StartChar: Softsigncyrillic
Encoding: 1068 1068 324
Width: 1075
VWidth: 1947
GlyphClass: 2
Flags: MW
LayerCount: 2
Fore
SplineSet
215 715 m 29
 548 715 l 6
 756 715 860 626 860 445 c 6
 860 337 l 6
 860 158 767 105 548 105 c 6
 215 105 l 5
 215 1400 l 5
EndSplineSet
EndChar

StartChar: Ereversedcyrillic
Encoding: 1069 1069 325
Width: 1075
VWidth: 1947
GlyphClass: 2
Flags: MW
LayerCount: 2
Fore
SplineSet
453 756 m 25
 871 755 l 25
247 315 m 1
 291 168 377 80 538 80 c 3
 824 80 872 384 872 700 c 3
 872 1025 821 1320 538 1320 c 3
 371 1320 285 1228 242 1074 c 1
EndSplineSet
EndChar

StartChar: IUcyrillic
Encoding: 1070 1070 326
Width: 1075
VWidth: 1947
GlyphClass: 2
Flags: MW
LayerCount: 2
Fore
SplineSet
191 700 m 25
 469 700 l 25
158 1400 m 17
 158 0 l 9
711 1320 m 0
 878 1320 918 1025 918 700 c 0
 918 369 878 80 711 80 c 0
 545 80 504 384 504 700 c 0
 504 1025 545 1320 711 1320 c 0
EndSplineSet
EndChar

StartChar: IAcyrillic
Encoding: 1071 1071 327
Width: 1075
VWidth: 1947
GlyphClass: 2
Flags: MW
LayerCount: 2
Fore
SplineSet
5 1458 m 1
 1071 1458 l 1
 1071 0 l 1
 5 0 l 1
 5 1458 l 1
121 -102 m 25
 538 680 l 25
860 685 m 25
 528 685 l 2
 320 685 215 762 215 943 c 2
 215 1063 l 2
 215 1229 309 1295 528 1295 c 2
 860 1295 l 1
 860 0 l 1
EndSplineSet
EndChar

StartChar: becyrillic
Encoding: 1073 1073 329
Width: 1075
VWidth: 2334
GlyphClass: 2
Flags: HMW
LayerCount: 2
Fore
SplineSet
860 1341 m 21
 738 1301 709 1296 537 1295 c 5
 377 1295 215 1192 215 923 c 6
 215 510 l 13
215 597 m 14
 215 427 l 22
 215 201 354 80 528 80 c 14
 548 80 l 22
 756 80 860 201 860 427 c 14
 860 597 l 22
 860 821 756 944 548 944 c 14
 528 944 l 22
 320 944 215 821 215 597 c 14
EndSplineSet
EndChar

StartChar: vecyrillic
Encoding: 1074 1074 330
Width: 1075
VWidth: 2334
GlyphClass: 2
Flags: MW
LayerCount: 2
Fore
SplineSet
215 105 m 17
 571 105 l 18
 778 105 882 181 882 316 c 10
 882 325 l 18
 882 458 777 549 570 549 c 2
 215 549 l 1
 509 549 l 2
 717 549 821 625 821 740 c 3
 821 855 717 919 509 919 c 2
 215 919 l 9
 215 105 l 17
EndSplineSet
EndChar

StartChar: gecyrillic
Encoding: 1075 1075 331
Width: 1075
VWidth: 1947
GlyphClass: 2
Flags: MW
LayerCount: 2
Fore
SplineSet
181 687 m 17
 181 718 189 749 204 778 c 1
 253 877 373 944 493 944 c 10
 514 944 l 18
 670 944 826 920 826 757 c 2
 826 745 l 2
 826 692 788 649 722 625 c 2
 287 451 l 2
 218 423 181 368 181 301 c 2
 181 287 l 2
 181 151 337 80 493 80 c 10
 548 80 l 18
 706 80 860 203 860 337 c 8
EndSplineSet
EndChar

StartChar: decyrillic
Encoding: 1076 1076 332
Width: 1075
VWidth: 1947
GlyphClass: 2
Flags: MW
LayerCount: 2
Back
SplineSet
5 1049 m 5
 1071 1049 l 5
 1071 150 l 5
 967 -190 l 5
 115 -190 l 5
 5 150 l 5
 5 1049 l 5
EndSplineSet
Fore
SplineSet
169 -162 m 17
 169 106 l 9
 907 106 l 17
 907 -162 l 9
250 106 m 17
 346 605 l 1
 373 761 548 893 701 919 c 9
 837 919 l 17
 837 106 l 9
EndSplineSet
EndChar

StartChar: zhecyrillic
Encoding: 1078 1078 334
Width: 1075
VWidth: 1947
GlyphClass: 2
Flags: MW
LayerCount: 2
Back
SplineSet
5 1400 m 5
 1071 1400 l 5
 1071 0 l 5
 5 0 l 5
 5 1400 l 5
EndSplineSet
Fore
SplineSet
967 -142 m 25
 692 494 l 25
109 -142 m 25
 382 494 l 25
109 1038 m 25
 538 181 l 25
 967 1038 l 25
538 1024 m 25
 538 -14 l 25
EndSplineSet
EndChar

StartChar: zecyrillic
Encoding: 1079 1079 335
Width: 1075
VWidth: 1947
GlyphClass: 2
Flags: MW
LayerCount: 2
Fore
SplineSet
213 781 m 1
 259 887 382 943 504 943 c 10
 548 943 l 18
 704 943 808 866 808 776 c 10
 808 765 l 18
 808 654 704 560 550 560 c 1
 424 560 l 9
 548 560 l 18
 756 560 860 450 860 334 c 10
 860 314 l 18
 860 201 756 80 548 80 c 10
 528 80 l 18
 387 80 215 156 215 297 c 1
EndSplineSet
EndChar

StartChar: iicyrillic
Encoding: 1080 1080 336
Width: 1075
VWidth: 1947
GlyphClass: 2
Flags: MW
LayerCount: 2
Back
SplineSet
5 1023 m 5
 1071 1023 l 5
 1071 0 l 5
 5 0 l 5
 5 1023 l 5
EndSplineSet
Fore
SplineSet
860 0 m 25
 860 943 l 25
 215 79 l 25
 215 1023 l 25
EndSplineSet
EndChar

StartChar: kacyrillic
Encoding: 1082 1082 338
Width: 1075
VWidth: 1947
GlyphClass: 2
Flags: MW
LayerCount: 2
Back
SplineSet
5 1295 m 5
 1071 1295 l 5
 1071 0 l 5
 5 0 l 5
 5 1295 l 5
EndSplineSet
Fore
SplineSet
969 -125 m 25
 458 458 l 25
895 983 m 25
 215 158 l 25
215 1023 m 25
 215 -25 l 25
EndSplineSet
EndChar

StartChar: elcyrillic
Encoding: 1083 1083 339
Width: 1075
VWidth: 1947
GlyphClass: 2
Flags: MW
LayerCount: 2
Back
SplineSet
5 1048 m 5
 1071 1048 l 5
 1071 0 l 5
 5 0 l 5
 5 1048 l 5
EndSplineSet
Fore
SplineSet
147 -99 m 16
 358 604 l 2
 394 745 560 870 701 918 c 9
 860 918 l 25
 860 0 l 25
EndSplineSet
EndChar

StartChar: emcyrillic
Encoding: 1084 1084 340
Width: 1075
VWidth: 1947
GlyphClass: 2
Flags: MW
LayerCount: 2
Back
SplineSet
5 1 m 5
 5 1025 l 5
 1071 1025 l 5
 1071 1 l 5
 711 1 l 5
 710 106 l 5
 372 106 l 5
 372 1 l 5
 5 1 l 5
EndSplineSet
Fore
SplineSet
116 -74 m 25
 218 1026 l 25
 538 152 l 25
 860 1026 l 25
 960 -75 l 25
EndSplineSet
EndChar

StartChar: encyrillic
Encoding: 1085 1085 341
Width: 1075
VWidth: 1947
GlyphClass: 2
Flags: MW
LayerCount: 2
Fore
SplineSet
215 470 m 29
 860 470 l 29
860 1023 m 29
 860 0 l 29
215 1023 m 29
 215 0 l 29
EndSplineSet
EndChar

StartChar: tecyrillic
Encoding: 1090 1090 346
Width: 1075
VWidth: 1947
GlyphClass: 2
Flags: MW
LayerCount: 2
Fore
SplineSet
538 0 m 29
 538 920 l 29
86 920 m 29
 990 920 l 29
EndSplineSet
EndChar

StartChar: efcyrillic
Encoding: 1092 1092 348
Width: 1075
VWidth: 1947
GlyphClass: 2
Flags: MW
LayerCount: 2
Fore
SplineSet
538 1049 m 25
 538 -386 l 25
538 876 m 3
 781 876 918 737 918 473 c 3
 918 206 781 80 538 80 c 3
 295 80 158 206 158 473 c 3
 158 737 295 876 538 876 c 3
EndSplineSet
EndChar

StartChar: tsecyrillic
Encoding: 1094 1094 350
Width: 1075
VWidth: 2334
GlyphClass: 2
Flags: MW
LayerCount: 2
Fore
SplineSet
215 1024 m 25
 215 337 l 18
 215 158 296 80 504 80 c 10
 525 80 l 18
 708 80 860 313 860 447 c 10
 860 531 l 25
860 1024 m 25
 860 109 l 17
 904 73 909 8 909 -56 c 3
 909 -114 842 -188 768 -228 c 9
EndSplineSet
EndChar

StartChar: checyrillic
Encoding: 1095 1095 351
Width: 1075
VWidth: 1947
GlyphClass: 2
Flags: MW
LayerCount: 2
Fore
SplineSet
215 1024 m 25
 215 697 l 18
 215 518 296 427 504 427 c 10
 525 427 l 18
 708 427 860 673 860 807 c 10
 860 891 l 25
860 1024 m 25
 860 0 l 17
EndSplineSet
EndChar

StartChar: shacyrillic
Encoding: 1096 1096 352
Width: 1075
VWidth: 2334
GlyphClass: 2
Flags: MW
LayerCount: 2
Fore
SplineSet
169 1024 m 29
 169 247 l 22
 169 116 231 80 325 80 c 14
 337 80 l 22
 450 80 538 203 538 337 c 14
 538 421 l 29
538 1024 m 29
 538 247 l 22
 538 116 599 80 694 80 c 14
 706 80 l 22
 819 80 907 203 907 337 c 14
 907 421 l 29
907 0 m 29
 907 1024 l 29
EndSplineSet
EndChar

StartChar: shchacyrillic
Encoding: 1097 1097 353
Width: 1075
VWidth: 2334
GlyphClass: 2
Flags: MW
LayerCount: 2
Fore
SplineSet
169 1024 m 25
 169 247 l 18
 169 116 231 80 325 80 c 10
 337 80 l 18
 450 80 538 203 538 337 c 10
 538 421 l 25
538 1024 m 25
 538 247 l 18
 538 116 599 80 694 80 c 10
 706 80 l 18
 819 80 907 203 907 337 c 10
 907 421 l 25
814 -228 m 17
 888 -188 955 -114 955 -56 c 3
 955 8 951 73 907 109 c 1
 907 1024 l 9
EndSplineSet
EndChar

StartChar: hardsigncyrillic
Encoding: 1098 1098 354
Width: 1075
VWidth: 1947
GlyphClass: 2
Flags: MW
LayerCount: 2
Back
SplineSet
74 1023 m 5
 1071 1023 l 5
 1071 -60 l 5
 5 -60 l 5
 5 278 l 5
 167 280 l 5
 167 572 l 5
 74 572 l 5
 74 1023 l 5
EndSplineSet
Fore
SplineSet
389 561 m 25
 548 561 l 18
 703 561 860 490 860 357 c 2
 860 311 l 2
 860 176 704 105 548 104 c 10
 389 104 l 25
 389 906 l 25
 155 906 l 25
 10 462 l 25
EndSplineSet
EndChar

StartChar: yericyrillic
Encoding: 1099 1099 355
Width: 1075
VWidth: 1947
GlyphClass: 2
Flags: MW
LayerCount: 2
Fore
SplineSet
918 0 m 25
 918 1023 l 25
158 1023 m 25
 158 105 l 25
 283 105 l 18
 439 105 572 176 572 311 c 2
 572 357 l 2
 572 490 437 561 283 561 c 10
 158 561 l 25
EndSplineSet
EndChar

StartChar: softsigncyrillic
Encoding: 1100 1100 356
Width: 1075
VWidth: 1947
GlyphClass: 2
Flags: MW
LayerCount: 2
Fore
SplineSet
215 1048 m 25
 215 105 l 25
 548 105 l 18
 704 105 860 176 860 311 c 2
 860 357 l 2
 860 490 703 561 548 561 c 10
 215 561 l 25
EndSplineSet
EndChar

StartChar: ereversedcyrillic
Encoding: 1101 1101 357
Width: 1075
VWidth: 1947
GlyphClass: 2
Flags: MW
LayerCount: 2
Fore
SplineSet
372 512 m 29
 842 512 l 29
215 798 m 5
 252 904 351 943 510 943 c 14
 531 943 l 22
 739 943 843 821 843 597 c 14
 843 427 l 22
 843 201 704 80 531 80 c 14
 510 80 l 22
 353 80 256 118 217 220 c 5
EndSplineSet
EndChar

StartChar: iucyrillic
Encoding: 1102 1102 358
Width: 1075
VWidth: 1947
GlyphClass: 2
Flags: MW
LayerCount: 2
Fore
SplineSet
190 512 m 25
 450 512 l 25
169 1023 m 25
 169 0 l 25
688 943 m 3
 855 943 907 780 907 513 c 3
 907 244 855 80 688 80 c 3
 522 80 470 244 470 513 c 3
 470 781 522 943 688 943 c 3
EndSplineSet
EndChar

StartChar: iacyrillic
Encoding: 1103 1103 359
Width: 1075
VWidth: 1947
GlyphClass: 2
Flags: W
LayerCount: 2
Fore
SplineSet
192 18 m 25
 550 470 l 25
860 0 m 25
 860 918 l 25
 528 918 l 18
 372 918 215 867 215 732 c 2
 215 711 l 2
 215 578 373 487 528 487 c 10
 860 487 l 25
EndSplineSet
EndChar

StartChar: ecyrillic
Encoding: 1108 1108 362
Width: 1075
VWidth: 1947
GlyphClass: 2
Flags: W
HStem: -28 187<334.41 618.281> 443 176<259 590> 864 181<344.825 620.404>
VStem: 75 181<245.25 443>
DStem2: 849 804 699 721 0.496139 -0.868243<-171.391 -2.35666>
LayerCount: 2
Fore
SplineSet
706 512 m 25
 235 512 l 25
862 798 m 1
 825 904 726 943 567 943 c 10
 546 943 l 18
 338 943 234 821 234 597 c 10
 234 427 l 18
 234 201 373 80 546 80 c 10
 567 80 l 18
 724 80 821 118 860 220 c 1
EndSplineSet
EndChar

StartChar: numero
Encoding: 8470 8470 372
Width: 1075
VWidth: 1947
Flags: MW
LayerCount: 2
Back
SplineSet
-3 1400 m 5
 1079 1400 l 5
 1079 0 l 5
 -3 0 l 5
 -3 1400 l 5
EndSplineSet
Fore
SplineSet
835 1225.25 m 3
 924.5 1225.25 958 1091.15 958 886.85 c 3
 958 680.75 924.5 545.75 835 545.75 c 3
 745.5 545.75 712 680.75 712 886.85 c 3
 712 1091.15 745.5 1225.25 835 1225.25 c 3
149 0 m 17
 149 1405 l 9
 507 -5 l 25
 507 1400 l 25
EndSplineSet
EndChar

StartChar: caroncomb
Encoding: 780 780 377
Width: 1075
VWidth: 1947
Flags: MW
LayerCount: 2
Back
SplineSet
77 1422 m 5
 77 1736 l 5
 999 1736 l 5
 999 1422 l 5
 77 1422 l 5
EndSplineSet
Fore
SplineSet
338 1600 m 25
 538 1460 l 25
 738 1600 l 25
EndSplineSet
EndChar

StartChar: gravecomb
Encoding: 768 768 379
Width: 1075
VWidth: 2334
Flags: MW
LayerCount: 2
Fore
SplineSet
469 1647 m 25
 667 1438 l 25
EndSplineSet
EndChar

StartChar: acutecomb
Encoding: 769 769 380
Width: 1075
VWidth: 2334
Flags: MW
LayerCount: 2
Fore
SplineSet
607 1647 m 25
 409 1438 l 25
EndSplineSet
EndChar

StartChar: tildecomb
Encoding: 771 771 381
Width: 1075
VWidth: 1947
Flags: MW
LayerCount: 2
Fore
SplineSet
259 1502 m 17
 279 1527.55 l 2
 313.359 1571.44 351.987 1612 421 1612 c 10
 437 1612 l 18
 472.216 1612 505.901 1594.99 528 1575.76 c 2
 547 1558.89 l 2
 569.258 1539.39 602.831 1522 638 1522 c 10
 655 1522 l 18
 725 1522 764.659 1562 800 1609.27 c 2
 817 1632 l 9
EndSplineSet
EndChar

StartChar: hookabovecomb
Encoding: 777 777 382
Width: 1075
VWidth: 1947
Flags: MW
LayerCount: 2
Fore
SplineSet
545 1255 m 1
 545 1387 l 1
 686 1387 743 1416.08 743 1495 c 3
 743 1579.48 641.476 1606 557 1606 c 27
 475.519 1606 418.163 1589.67 356 1549 c 9
EndSplineSet
EndChar

StartChar: dotbelowcomb
Encoding: 803 803 383
Width: 1075
VWidth: 2334
Flags: MW
LayerCount: 2
Fore
SplineSet
419 -253 m 31
 419 -187 471 -133 538 -133 c 31
 604 -133 659 -187 659 -253 c 31
 659 -319 604 -373 538 -373 c 31
 471 -373 419 -319 419 -253 c 31
EndSplineSet
EndChar

StartChar: commaturnedabovecmb
Encoding: 786 786 396
Width: 1075
VWidth: 1947
Flags: MW
LayerCount: 2
Fore
SplineSet
575 18 m 17
 575 0 l 1
 566 -132 l 1
 707 -132 764 -191.082 764 -270 c 3
 764 -354.476 669.027 -411 578 -411 c 27
 494.055 -411 429 -379 377 -334 c 9
EndSplineSet
EndChar

StartChar: Hbar
Encoding: 294 294 400
Width: 1075
VWidth: 1947
Flags: W
LayerCount: 2
Fore
SplineSet
60 1160 m 29
 1015 1160 l 29
215 700 m 25
 860 700 l 25
860 1400 m 25
 860 0 l 25
215 1400 m 25
 215 0 l 25
EndSplineSet
EndChar

StartChar: hbar
Encoding: 295 295 401
Width: 1075
VWidth: 2334
Flags: W
LayerCount: 2
Fore
SplineSet
860 0 m 25
 860 687 l 18
 860 866 756 944 548 944 c 10
 528 944 l 18
 345 944 215 731 215 597 c 10
 215 513 l 25
215 1400 m 25
 215 0 l 25
60 1240 m 25
 595 1240 l 25
EndSplineSet
EndChar

StartChar: IJ
Encoding: 306 306 410
Width: 1075
VWidth: 1947
Flags: W
LayerCount: 2
Fore
SplineSet
504 337 m 9
 592 337 l 18
 682 337 727 425 727 597 c 10
 727 1308 l 25
117 92 m 25
 639 92 l 25
348 92 m 17
117 1308 m 25
 959 1308 l 1
348 1308.59 m 1
 348 92 l 9
EndSplineSet
EndChar

StartChar: Tbar
Encoding: 358 358 430
Width: 1075
VWidth: 1947
Flags: W
LayerCount: 2
Fore
SplineSet
86 560 m 29
 990 560 l 29
538 0 m 25
 538 1295 l 25
86 1295 m 25
 990 1295 l 25
EndSplineSet
EndChar

StartChar: tbar
Encoding: 359 359 431
Width: 1075
VWidth: 1947
Flags: W
LayerCount: 2
Back
SplineSet
5 1425 m 5
 1071 1425 l 5
 1071 -84 l 5
 5 -84 l 5
 5 1425 l 5
EndSplineSet
Fore
SplineSet
109 903 m 25
 860 903 l 25
837 247 m 17
 837 225 831 203 820 182 c 1
 786 119 708 80 629 80 c 10
 609 80 l 18
 504 80 395 159 400 248 c 2
 473 1506 l 9
86 560 m 25
 990 560 l 25
EndSplineSet
EndChar

StartChar: A
Encoding: 65 65 461
Width: 1075
VWidth: 1708
Flags: MW
LayerCount: 2
Back
SplineSet
5 0 m 5
 5 1425 l 5
 1071 1425 l 5
 1071 0 l 5
 5 0 l 5
EndSplineSet
Fore
SplineSet
276 324 m 25
 800 324 l 25
187 -25 m 25
 538 1358 l 25
 889 -25 l 25
EndSplineSet
EndChar

StartChar: Lambda
Encoding: 923 923 462
Width: 1075
VWidth: 1708
Flags: MW
LayerCount: 2
Back
SplineSet
5 0 m 5
 5 1425 l 5
 1071 1425 l 5
 1071 0 l 5
 5 0 l 5
EndSplineSet
Fore
SplineSet
162 -117 m 25
 538 1358 l 25
 921 -129 l 25
EndSplineSet
EndChar

StartChar: Delta
Encoding: 916 916 463
Width: 1075
VWidth: 1708
Flags: MW
LayerCount: 2
Back
SplineSet
5 0 m 5
 5 1425 l 5
 1071 1425 l 5
 1071 0 l 5
 5 0 l 5
EndSplineSet
Fore
SplineSet
860 106 m 9
 538 1358 l 17
 215 105 l 1
 860 106 l 9
EndSplineSet
EndChar

StartChar: Theta
Encoding: 920 920 464
Width: 1075
VWidth: 1947
Flags: MW
LayerCount: 2
Fore
SplineSet
538 1320 m 7
 824 1320 872 1025 872 700 c 7
 872 369 817 80 538 80 c 7
 251 80 204 384 204 700 c 7
 204 1025 255 1320 538 1320 c 7
417 699 m 21
 511 699 565 699 659 699 c 13
EndSplineSet
EndChar

StartChar: Xi
Encoding: 926 926 465
Width: 1075
VWidth: 1708
Flags: W
LayerCount: 2
Fore
SplineSet
215 337 m 25
 215 105 l 25
 860 105 l 25
 860 337 l 25
349 700 m 25
 727 700 l 25
215 1049 m 25
 215 1295 l 25
 860 1295 l 25
 860 1049 l 25
EndSplineSet
EndChar

StartChar: Sigma
Encoding: 931 931 468
Width: 1075
VWidth: 1947
Flags: MW
LayerCount: 2
Back
SplineSet
109 1425 m 5
 969 1425 l 5
 969 -25 l 5
 109 -25 l 5
 109 1425 l 5
EndSplineSet
Fore
SplineSet
967 105 m 1
 181 105 l 1
 539 702 l 1
 181 1295 l 1
 967 1295 l 1
EndSplineSet
EndChar

StartChar: Psi
Encoding: 936 936 473
Width: 1075
VWidth: 1947
Flags: MW
LayerCount: 2
Fore
SplineSet
884 1320 m 25
 884 696 l 18
 884 582 798 512 671 512 c 10
 405 512 l 18
 291 512 192 600 192 696 c 10
 192 1320 l 25
538 1425 m 25
 538 -24 l 25
EndSplineSet
EndChar

StartChar: Omega
Encoding: 937 937 474
Width: 1075
VWidth: 1947
Flags: MW
LayerCount: 2
Fore
SplineSet
109 105 m 1
 341 105 l 0
 341 375 l 1
 228 488 204 665 204 830 c 3
 204 1108 255 1320 538 1320 c 3
 824 1320 872 1096 872 830 c 3
 872 663 846 474 734 375 c 1
 735 105 l 1
 967 105 l 25
EndSplineSet
EndChar

StartChar: alpha
Encoding: 945 945 483
Width: 1075
VWidth: 1947
Flags: MW
LayerCount: 2
Fore
SplineSet
857 1024 m 1
 680.79 223 l 2
 660.337 130.026 596 67 488 67 c 3
 327.847 67 249 243.998 249 513 c 3
 249 780.002 327.922 956 488 956 c 3
 596.005 956 661.165 890.814 681.436 800 c 2
 860 0 l 17
EndSplineSet
EndChar

StartChar: beta
Encoding: 946 946 484
Width: 1075
VWidth: 2334
Flags: MW
LayerCount: 2
Fore
SplineSet
215 -321 m 25
 215 687 l 18
 215 866 320 944 528 944 c 10
 547 944 l 18
 728 944 844 867 844 752 c 3
 844 637 740 549 532 549 c 2
 469 549 l 1
 570 549 l 2
 777 549 882 458 882 325 c 10
 882 291 l 18
 882 156 778 80 571 80 c 10
 528 80 l 18
 320 80 215 156 215 291 c 10
EndSplineSet
EndChar

StartChar: gamma
Encoding: 947 947 485
Width: 1075
VWidth: 2334
Flags: MW
LayerCount: 2
Back
SplineSet
5 1024 m 5
 1071 1024 l 5
 1071 -386 l 5
 5 -386 l 5
 5 1024 l 5
EndSplineSet
Fore
SplineSet
539 -386 m 25
 539 106 l 25
195 1086 m 25
 538 79 l 25
 876 1069 l 25
EndSplineSet
EndChar

StartChar: delta
Encoding: 948 948 486
Width: 1075
VWidth: 2334
Flags: MW
LayerCount: 2
Back
SplineSet
144 1455 m 5
 1071 1455 l 5
 1071 -51 l 5
 5 -51 l 5
 5 1098 l 5
 144 1098 l 5
 144 1455 l 5
EndSplineSet
Fore
SplineSet
860 1295 m 25
 215 1295 l 25
 744 898 l 25
215 597 m 10
 215 427 l 18
 215 201 354 80 528 80 c 10
 548 80 l 18
 756 80 860 201 860 427 c 10
 860 597 l 18
 860 821 756 944 548 944 c 10
 528 944 l 18
 320 944 215 821 215 597 c 10
EndSplineSet
EndChar

StartChar: epsilon
Encoding: 949 949 487
Width: 1075
VWidth: 2334
Flags: W
LayerCount: 2
Fore
SplineSet
828 868 m 5
 787 918 696 944 572 944 c 14
 528 944 l 22
 320 944 215 867 215 732 c 7
 215 623 313 533 532 533 c 14
 708 533 l 29
 532 533 l 22
 313 533 215 402 215 317 c 14
 215 300 l 22
 215 156 320 80 528 80 c 14
 572 80 l 22
 704 80 773 98 826 156 c 5
EndSplineSet
EndChar

StartChar: zeta
Encoding: 950 950 488
Width: 1075
VWidth: 2334
Flags: MW
LayerCount: 2
Back
SplineSet
5 1389 m 5
 967 1389 l 5
 967 512 l 5
 1071 512 l 5
 1071 -411 l 5
 5 -411 l 5
 5 1389 l 5
EndSplineSet
Fore
SplineSet
435 1049 m 17
 548 957 704 919 860 919 c 1
 806 859 741.294 808.681 664 764 c 2
 427 627 l 2
 303.015 555.329 215 467 215 357 c 10
 215 337 l 18
 215 156 320 80 528 80 c 10
 548 80 l 18
 756 80 860 0 860 -104 c 3
 860 -263 756 -294 538 -294 c 9
EndSplineSet
EndChar

StartChar: eta
Encoding: 951 951 489
Width: 1075
VWidth: 2334
Flags: MW
LayerCount: 2
Fore
SplineSet
860 -387 m 29
 860 687 l 22
 860 866 756 944 548 944 c 14
 528 944 l 22
 345 944 215 731 215 597 c 14
 215 513 l 29
215 1024 m 29
 215 0 l 29
EndSplineSet
EndChar

StartChar: theta
Encoding: 952 952 490
Width: 1075
VWidth: 1947
Flags: MW
LayerCount: 2
Fore
SplineSet
538 943 m 3
 781 943 872 780 872 513 c 3
 872 244 781 80 538 80 c 3
 295 80 204 244 204 513 c 3
 204 781 295 943 538 943 c 3
202 512 m 17
 311 512 765 512 874 512 c 9
EndSplineSet
EndChar

StartChar: lambda
Encoding: 955 955 491
Width: 1075
VWidth: 2334
Flags: MW
LayerCount: 2
Back
SplineSet
5 0 m 5
 5 1410 l 5
 1071 1410 l 5
 1071 0 l 5
 5 0 l 5
EndSplineSet
Fore
SplineSet
351 1491 m 25
 813 138 l 25
195 -62 m 25
 537 945 l 25
 876 -45 l 25
EndSplineSet
EndChar

StartChar: xi
Encoding: 958 958 494
Width: 1075
VWidth: 2334
Flags: MW
LayerCount: 2
Back
SplineSet
5 1425 m 5
 860 1425 l 5
 860 772 l 5
 1071 772 l 5
 1071 -410 l 5
 5 -410 l 5
 5 1425 l 5
EndSplineSet
Fore
SplineSet
535 -294 m 17
 662 -294 860 -220 860 -120 c 10
 860 -88 l 18
 860 -8 652 80 572 80 c 10
 528 80 l 18
 320 80 215 156 215 300 c 10
 215 317 l 18
 215 402 313 533 532 533 c 10
 754 533 l 25
 532 533 l 18
 313 533 215 623 215 732 c 0
 215 995 511 954 699 1077 c 1
 538 1083 428 1119 326 1212 c 9
EndSplineSet
EndChar

StartChar: pi
Encoding: 960 960 496
Width: 1075
VWidth: 2334
Flags: MW
LayerCount: 2
Back
SplineSet
109 1320 m 5
 967 1320 l 5
 967 0 l 5
 109 0 l 5
 109 1320 l 5
EndSplineSet
Fore
SplineSet
17 812 m 17
 86 878 174 919 343 919 c 2
 733 919 l 2
 907 919 1004 988 1059 1062 c 9
756 919 m 25
 756 200 l 18
 756 79 817 -80 909 -142 c 9
167 -142 m 17
 252 -80 320 96 320 200 c 10
 320 919 l 25
EndSplineSet
EndChar

StartChar: rho
Encoding: 961 961 497
Width: 1075
VWidth: 2334
Flags: MW
LayerCount: 2
Fore
SplineSet
215 -386 m 25
 215 514 l 25
860 427 m 10
 860 597 l 18
 860 823 722 944 548 944 c 10
 528 944 l 18
 320 944 215 823 215 597 c 10
 215 427 l 18
 215 203 320 80 528 80 c 10
 548 80 l 18
 756 80 860 203 860 427 c 10
EndSplineSet
EndChar

StartChar: sigmafinal
Encoding: 962 962 498
Width: 1075
VWidth: 2059
Flags: MW
LayerCount: 2
Fore
SplineSet
910 902 m 9
 863 904 l 18
 774.243 932.421 691.672 945.538 617.223 945.538 c 3
 372.09 945.538 215 803.334 215 597 c 10
 215 427 l 18
 215 201 354 80 528 80 c 10
 548 80 l 18
 704 80 860 -0 860 -92 c 2
 860 -111 l 2
 860 -227 731 -294 535 -294 c 9
EndSplineSet
EndChar

StartChar: sigma
Encoding: 963 963 499
Width: 1075
VWidth: 1947
Flags: MW
LayerCount: 2
Fore
SplineSet
976 933 m 25
 614 932 l 25
523 943 m 3
 724 943 843 780 843 513 c 3
 843 244 724 80 523 80 c 3
 305 80 204 244 204 513 c 3
 204 781 305 943 523 943 c 3
EndSplineSet
EndChar

StartChar: tau
Encoding: 964 964 500
Width: 1075
VWidth: 2334
Flags: MW
LayerCount: 2
Back
SplineSet
109 1320 m 5
 967 1320 l 5
 967 0 l 5
 109 0 l 5
 109 1320 l 5
EndSplineSet
Fore
SplineSet
17 812 m 17
 86 878 174 919 343 919 c 2
 733 919 l 2
 907 919 1004 988 1059 1062 c 9
339 -142 m 17
 440 -88 538 62 538 200 c 1
 538 919 l 9
EndSplineSet
EndChar

StartChar: upsilon
Encoding: 965 965 501
Width: 1075
VWidth: 1947
Flags: MW
LayerCount: 2
Fore
SplineSet
619 943 m 3
 828 943 872 780 872 513 c 3
 872 244 781 80 538 80 c 3
 295 80 215 244 215 513 c 0
 215 1023 l 1
EndSplineSet
EndChar

StartChar: phi
Encoding: 966 966 502
Width: 1075
VWidth: 1947
Flags: MW
LayerCount: 2
Fore
SplineSet
538 -386 m 1
 538 702 l 2
 538 866 612 943 704 943 c 3
 850 943 918 780 918 513 c 3
 918 244 781 80 538 80 c 3
 295 80 158 244 158 513 c 2
 158 943 l 1
EndSplineSet
EndChar

StartChar: chi
Encoding: 967 967 503
Width: 1075
VWidth: 2062
Flags: MW
LayerCount: 2
Back
SplineSet
5 1023 m 5
 1071 1023 l 5
 1071 -387 l 5
 5 -387 l 5
 5 1023 l 5
EndSplineSet
Fore
SplineSet
967 1298 m 25
 109 -690 l 17
27 1245 m 1
 279.425 948 l 2
 337.201 880.021 413.184 691.234 459.13 540 c 2
 594.203 81 l 2
 637.582 -66.4072 722.308 -234.876 796.035 -315 c 2
 1050 -591 l 9
EndSplineSet
EndChar

StartChar: psi
Encoding: 968 968 504
Width: 1075
VWidth: 1947
Flags: MW
LayerCount: 2
Fore
SplineSet
538 -386 m 1
 538 1049 l 17
918 943 m 0
 918 513 l 3
 918 231 781 80 538 80 c 3
 295 80 158 244 158 513 c 2
 158 943 l 1
EndSplineSet
EndChar

StartChar: omega
Encoding: 969 969 505
Width: 1075
VWidth: 2334
Flags: MW
LayerCount: 2
Back
SplineSet
5 -114 m 5
 5 1024 l 5
 1071 1024 l 5
 1071 -114 l 5
 5 -114 l 5
EndSplineSet
Fore
SplineSet
372 1134 m 17
 265 1094 169 868 169 702 c 10
 169 336 l 18
 169 205 243 80 338 80 c 10
 350 80 l 18
 463 80 538 116 538 247 c 10
 538 700 l 25
 538 247 l 18
 538 116 627 80 722 80 c 10
 733 80 l 18
 847 80 907 203 907 337 c 10
 907 702 l 18
 907 868 811 1094 704 1132 c 9
EndSplineSet
EndChar

StartChar: dieresiscmb
Encoding: 776 776 508
Width: 1075
VWidth: 1947
Flags: MW
LayerCount: 2
Fore
SplineSet
463 1386 m 0
 463 1323 412 1267 350 1267 c 0
 289 1267 236 1320 236 1386 c 0
 236 1456 292 1501 349 1501 c 0
 414 1501 463 1447 463 1386 c 0
839 1386 m 0
 839 1317 784 1267 727 1267 c 0
 667 1267 614 1321 614 1386 c 0
 614 1452 667 1501 727 1501 c 0
 782 1501 839 1456 839 1386 c 0
EndSplineSet
EndChar

StartChar: Djecyrillic
Encoding: 1026 1026 512
Width: 1075
VWidth: 2334
Flags: MW
LayerCount: 2
Fore
SplineSet
424 263 m 25
 424 417 l 18
 424 755 590 887 678 887 c 10
 699 887 l 18
 813 887 895 825 895 687 c 2
 895 336 l 2
 895 194 860 105 728 105 c 10
 707 105 l 25
424 1295 m 25
 424 0 l 25
86 1295 m 25
 863 1295 l 25
EndSplineSet
EndChar

StartChar: Ljecyrillic
Encoding: 1033 1033 513
Width: 1075
VWidth: 1947
Flags: MW
LayerCount: 2
Back
SplineSet
5 1425 m 5
 1071 1425 l 5
 1071 -100 l 5
 347 -100 l 5
 347 0 l 5
 5 0 l 5
 5 1425 l 5
EndSplineSet
Fore
SplineSet
140 -126 m 25
 262 1075 l 18
 272 1184 341 1295 390 1295 c 10
 551 1295 l 1
 551 105 l 1
 629 105 l 2
 848 105 941 158 941 337 c 2
 941 495 l 2
 941 676 837 765 629 765 c 2
 551 765 l 25
EndSplineSet
EndChar

StartChar: Njecyrillic
Encoding: 1034 1034 514
Width: 1075
VWidth: 1947
Flags: MW
LayerCount: 2
Fore
SplineSet
159 1400 m 25
 158 0 l 25
158 765 m 25
 629 765 l 2
 837 765 941 676 941 495 c 2
 941 337 l 2
 941 158 848 105 629 105 c 2
 551 105 l 1
 551 1400 l 1
EndSplineSet
EndChar

StartChar: Tshecyrillic
Encoding: 1035 1035 515
Width: 1075
VWidth: 2334
Flags: MW
LayerCount: 2
Fore
SplineSet
895 0 m 25
 895 687 l 18
 895 825 813 887 699 887 c 10
 678 887 l 18
 590 887 424 755 424 417 c 10
 424 263 l 25
424 1295 m 25
 424 0 l 25
86 1295 m 25
 863 1295 l 25
EndSplineSet
EndChar

StartChar: Dzhecyrillic
Encoding: 1039 1039 516
Width: 1075
VWidth: 2334
Flags: MW
LayerCount: 2
Fore
SplineSet
538 105 m 25
 538 -386 l 25
215 1400 m 25
 215 105 l 25
 860 105 l 17
 860 1400 l 9
EndSplineSet
EndChar

StartChar: djecyrillic
Encoding: 1106 1106 517
Width: 1075
VWidth: 2334
Flags: MW
LayerCount: 2
Fore
SplineSet
40 1153 m 25
 704 1153 l 25
387 -228 m 1
 427 -271 489 -294 554 -294 c 10
 613 -294 l 18
 768 -294 860 -170 860 -28 c 10
 860 553 l 18
 860 732 814 823 606 823 c 10
 585 823 l 18
 403 823 273 597 273 463 c 10
 273 379 l 25
273 1424 m 25
 273 0 l 25
EndSplineSet
EndChar

StartChar: dzhecyrillic
Encoding: 1119 1119 519
Width: 1075
VWidth: 2334
Flags: MW
LayerCount: 2
Fore
SplineSet
538 -386 m 25
 538 106 l 25
217 1023 m 25
 215 106 l 25
 860 106 l 25
 860 1023 l 25
EndSplineSet
EndChar

StartChar: ljecyrillic
Encoding: 1113 1113 520
Width: 1075
VWidth: 1947
Flags: MW
LayerCount: 2
Back
SplineSet
5 1048 m 5
 1071 1048 l 5
 1071 0 l 5
 5 0 l 5
 5 1048 l 5
EndSplineSet
Fore
SplineSet
147 -99 m 16
 196 615 l 2
 206 764 240 870 381 918 c 9
 540 918 l 25
 539 105 l 25
 699 105 l 18
 808 105 907 176 907 311 c 2
 907 357 l 2
 907 490 808 561 699 561 c 10
 539 561 l 25
EndSplineSet
EndChar

StartChar: njecyrillic
Encoding: 1114 1114 521
Width: 1075
VWidth: 1947
Flags: MW
LayerCount: 2
Fore
SplineSet
169 1024 m 25
 169 0 l 25
539 1024 m 25
 539 105 l 25
 699 105 l 18
 808 105 907 176 907 311 c 2
 907 357 l 2
 907 490 808 561 699 561 c 10
 539 561 l 25
 169 561 l 25
EndSplineSet
EndChar

StartChar: apostrophereverse
Encoding: 8219 8219 523
Width: 1075
VWidth: 1708
Flags: W
LayerCount: 2
Fore
SplineSet
411 1299 m 9
 626 1201 l 17
 523 1112 638 1035 707 1010 c 9
 687 936 l 17
 425 964 411 1168 411 1299 c 9
411 1299 m 0
 411 1369 465 1429 541 1429 c 0
 619 1429 670 1367 670 1299 c 0
 670 1229 615 1169 541 1169 c 0
 464 1169 411 1230 411 1299 c 0
EndSplineSet
EndChar

StartChar: arrowleft
Encoding: 8592 8592 526
Width: 1075
VWidth: 1708
Flags: W
LayerCount: 2
Fore
SplineSet
999 -99 m 5
 127 -99 l 5
 127 1224 l 5
 999 1224 l 5
 999 -99 l 5
538 960 m 29
 167 600 l 29
 538 240 l 29
167 600 m 29
 949 600 l 29
EndSplineSet
EndChar

StartChar: arrowright
Encoding: 8594 8594 527
Width: 1075
VWidth: 1708
Flags: MW
LayerCount: 2
Fore
SplineSet
77 -99 m 1
 77 1224 l 1
 949 1224 l 1
 949 -99 l 1
 77 -99 l 1
538 960 m 25
 909 600 l 25
 538 240 l 25
909 600 m 25
 127 600 l 25
EndSplineSet
EndChar

StartChar: lthorizform
Encoding: 9472 9472 528
Width: 1075
Flags: W
LayerCount: 2
Fore
SplineSet
1075 523 m 1
 -0 523 l 1
EndSplineSet
EndChar

StartChar: ltvertform
Encoding: 9474 9474 529
Width: 1075
Flags: W
LayerCount: 2
Fore
SplineSet
538 1775 m 1
 538 -615 l 1
EndSplineSet
EndChar

StartChar: rightanglenw
Encoding: 9484 9484 530
Width: 1075
Flags: W
LayerCount: 2
Fore
SplineSet
538 -615 m 1
 538 523 l 1
 1075 523 l 1
EndSplineSet
EndChar

StartChar: rightanglene
Encoding: 9488 9488 531
Width: 1075
Flags: W
LayerCount: 2
Fore
SplineSet
538 -615 m 1
 538 523 l 1
 -0 523 l 1
EndSplineSet
EndChar

StartChar: rightanglesw
Encoding: 9492 9492 532
Width: 1075
Flags: W
LayerCount: 2
Fore
SplineSet
538 1775 m 5
 538 523 l 1
 1075 523 l 1
EndSplineSet
EndChar

StartChar: rightanglese
Encoding: 9496 9496 533
Width: 1075
Flags: W
LayerCount: 2
Fore
SplineSet
538 1775 m 5
 538 523 l 1
 -0 523 l 1
EndSplineSet
EndChar

StartChar: ltvertrightform
Encoding: 9500 9500 534
Width: 1075
Flags: W
LayerCount: 2
Fore
SplineSet
538 1775 m 5
 538 -615 l 1
1075 523 m 1
 538 523 l 1
EndSplineSet
EndChar

StartChar: ltvertleftform
Encoding: 9508 9508 535
Width: 1075
Flags: W
LayerCount: 2
Fore
SplineSet
538 1775 m 5
 538 -615 l 1
538 523 m 1
 -0 523 l 1
EndSplineSet
EndChar

StartChar: ltdnhorizform
Encoding: 9516 9516 536
Width: 1075
Flags: W
LayerCount: 2
Fore
SplineSet
538 523 m 1
 538 -615 l 1
1075 523 m 1
 -0 523 l 1
EndSplineSet
EndChar

StartChar: ltuphorizform
Encoding: 9524 9524 537
Width: 1075
Flags: W
LayerCount: 2
Fore
SplineSet
538 1775 m 5
 538 523 l 1
1075 523 m 1
 -0 523 l 1
EndSplineSet
EndChar

StartChar: ltverthorizform
Encoding: 9532 9532 538
Width: 1075
Flags: W
LayerCount: 2
Fore
SplineSet
538 1775 m 5
 538 -615 l 1
1075 523 m 1
 -0 523 l 1
EndSplineSet
EndChar

StartChar: horizdblbar
Encoding: 9552 9552 539
Width: 1075
Flags: W
LayerCount: 2
Fore
SplineSet
1075 363 m 1
 0 363 l 1
1075 683 m 1
 0 683 l 1
EndSplineSet
EndChar

StartChar: vertdblbar
Encoding: 9553 9553 540
Width: 1075
Flags: W
LayerCount: 2
Fore
SplineSet
378 1775 m 5
 378 -615 l 1
698 1775 m 5
 698 -615 l 1
EndSplineSet
EndChar

StartChar: dnrtdblform
Encoding: 9554 9554 541
Width: 1075
Flags: W
LayerCount: 2
Fore
SplineSet
1075 363 m 1
 538 363 l 1
1075 683 m 1
 538 683 l 1
 538 -615 l 1
EndSplineSet
EndChar

StartChar: dndblrtform
Encoding: 9555 9555 542
Width: 1075
Flags: W
LayerCount: 2
Fore
SplineSet
378 -615 m 1
 378 523 l 1
 1075 523 l 1
698 523 m 1
 698 -615 l 1
EndSplineSet
EndChar

StartChar: dbldnrtform
Encoding: 9556 9556 543
Width: 1075
Flags: W
LayerCount: 2
Fore
SplineSet
1075 363 m 1
 698 363 l 1
 698 -615 l 1
1075 683 m 1
 378 683 l 1
 378 -615 l 1
EndSplineSet
EndChar

StartChar: dnleftdblform
Encoding: 9557 9557 544
Width: 1075
Flags: W
LayerCount: 2
Fore
SplineSet
538 363 m 1
 0 363 l 1
0 683 m 1
 538 683 l 1
 538 -615 l 1
EndSplineSet
EndChar

StartChar: dndblleftform
Encoding: 9558 9558 545
Width: 1075
Flags: W
LayerCount: 2
Fore
SplineSet
378 523 m 1
 378 -615 l 1
698 -615 m 1
 698 523 l 1
 -0 523 l 1
EndSplineSet
EndChar

StartChar: dbldnleftform
Encoding: 9559 9559 546
Width: 1075
Flags: W
LayerCount: 2
Fore
SplineSet
0 363 m 1
 378 363 l 1
 378 -615 l 1
0 683 m 1
 698 683 l 1
 698 -615 l 1
EndSplineSet
EndChar

StartChar: uprtdblform
Encoding: 9560 9560 547
Width: 1075
Flags: W
LayerCount: 2
Fore
SplineSet
1075 363 m 1
 538 363 l 1
 538 1775 l 5
1075 683 m 1
 538 683 l 1
EndSplineSet
EndChar

StartChar: updblrtform
Encoding: 9561 9561 548
Width: 1075
Flags: W
LayerCount: 2
Fore
SplineSet
378 1775 m 5
 378 523 l 1
 1075 523 l 1
698 1775 m 5
 698 523 l 1
EndSplineSet
EndChar

StartChar: dbluprtform
Encoding: 9562 9562 549
Width: 1075
Flags: W
LayerCount: 2
Fore
SplineSet
1075 363 m 1
 378 363 l 1
 378 1775 l 5
1075 683 m 1
 698 683 l 1
 698 1775 l 5
EndSplineSet
EndChar

StartChar: upleftdblform
Encoding: 9563 9563 550
Width: 1075
Flags: W
LayerCount: 2
Fore
SplineSet
0 363 m 1
 538 363 l 1
 538 1775 l 5
538 683 m 1
 0 683 l 1
EndSplineSet
EndChar

StartChar: updblleftform
Encoding: 9564 9564 551
Width: 1075
Flags: W
LayerCount: 2
Fore
SplineSet
378 1775 m 5
 378 523 l 1
698 1775 m 5
 698 523 l 1
 -0 523 l 1
EndSplineSet
EndChar

StartChar: dblupleftform
Encoding: 9565 9565 552
Width: 1075
Flags: W
LayerCount: 2
Fore
SplineSet
0 363 m 1
 698 363 l 1
 698 1775 l 5
0 683 m 1
 378 683 l 1
 378 1775 l 5
EndSplineSet
EndChar

StartChar: vertrtdblform
Encoding: 9566 9566 553
Width: 1075
Flags: W
LayerCount: 2
Fore
SplineSet
1075 363 m 1
 538 363 l 1
1075 683 m 1
 538 683 l 1
538 1775 m 5
 538 -615 l 1
EndSplineSet
EndChar

StartChar: vertdblrtform
Encoding: 9567 9567 554
Width: 1075
Flags: W
LayerCount: 2
Fore
SplineSet
378 1775 m 1
 378 -615 l 1
698 1775 m 1
 698 -615 l 1
1075 523 m 1
 698 523 l 1
EndSplineSet
EndChar

StartChar: dblvertrtform
Encoding: 9568 9568 555
Width: 1075
Flags: W
LayerCount: 2
Fore
SplineSet
1075 363 m 1
 698 363 l 1
 698 -615 l 1
1075 683 m 1
 698 683 l 1
 698 1775 l 5
378 1775 m 5
 378 -615 l 1
EndSplineSet
EndChar

StartChar: vertleftdblform
Encoding: 9569 9569 556
Width: 1075
Flags: W
LayerCount: 2
Fore
SplineSet
538 363 m 1
 0 363 l 1
538 683 m 1
 0 683 l 1
538 1775 m 5
 538 -615 l 1
EndSplineSet
EndChar

StartChar: vertdblleftform
Encoding: 9570 9570 557
Width: 1075
Flags: W
LayerCount: 2
Fore
SplineSet
378 1775 m 5
 378 -615 l 1
698 1775 m 5
 698 -615 l 1
378 523 m 1
 -0 523 l 1
EndSplineSet
EndChar

StartChar: dblvertleftform
Encoding: 9571 9571 558
Width: 1075
Flags: W
LayerCount: 2
Fore
SplineSet
0 363 m 1
 378 363 l 1
 378 -615 l 1
0 683 m 1
 378 683 l 1
 378 1775 l 5
698 1775 m 5
 698 -615 l 1
EndSplineSet
EndChar

StartChar: dnhorizdblform
Encoding: 9572 9572 559
Width: 1075
Flags: W
LayerCount: 2
Fore
SplineSet
1075 363 m 1
 0 363 l 1
1075 683 m 1
 0 683 l 1
538 363 m 1
 538 -615 l 1
EndSplineSet
EndChar

StartChar: dndblhorizform
Encoding: 9573 9573 560
Width: 1075
Flags: W
LayerCount: 2
Fore
SplineSet
378 523 m 1
 378 -615 l 1
698 523 m 1
 698 -615 l 1
1075 523 m 1
 0 523 l 1
EndSplineSet
EndChar

StartChar: dbldnhorizform
Encoding: 9574 9574 561
Width: 1075
Flags: W
LayerCount: 2
Fore
SplineSet
1075 363 m 1
 698 363 l 1
 698 -615 l 1
0 363 m 1
 378 363 l 1
 378 -615 l 1
1075 683 m 1
 0 683 l 1
EndSplineSet
EndChar

StartChar: uphorizdblform
Encoding: 9575 9575 562
Width: 1075
Flags: W
LayerCount: 2
Fore
SplineSet
1075 363 m 1
 0 363 l 1
1075 683 m 1
 0 683 l 1
538 1775 m 5
 538 683 l 1
EndSplineSet
EndChar

StartChar: updblhorizform
Encoding: 9576 9576 563
Width: 1075
Flags: W
LayerCount: 2
Fore
SplineSet
378 1775 m 5
 378 523 l 1
698 1775 m 5
 698 523 l 1
1075 523 m 1
 -0 523 l 1
EndSplineSet
EndChar

StartChar: dbluphorizform
Encoding: 9577 9577 564
Width: 1075
Flags: W
LayerCount: 2
Fore
SplineSet
1075 363 m 1
 0 363 l 1
1075 683 m 1
 698 683 l 1
 698 1775 l 5
0 683 m 1
 378 683 l 1
 378 1775 l 5
EndSplineSet
EndChar

StartChar: verthorizdblform
Encoding: 9578 9578 565
Width: 1075
Flags: W
LayerCount: 2
Fore
SplineSet
1075 363 m 1
 0 363 l 1
1075 715 m 1
 0 715 l 1
538 1775 m 1
 538 715 l 1
538 363 m 1
 538 -615 l 1
EndSplineSet
EndChar

StartChar: vertdblhorizform
Encoding: 9579 9579 566
Width: 1075
Flags: W
LayerCount: 2
Fore
SplineSet
378 1775 m 1
 378 -615 l 1
698 1775 m 1
 698 -615 l 1
1075 523 m 1
 698 523 l 1
378 523 m 1
 -0 523 l 1
EndSplineSet
EndChar

StartChar: dblverthorizform
Encoding: 9580 9580 567
Width: 1075
Flags: W
LayerCount: 2
Fore
SplineSet
1075 363 m 1
 698 363 l 1
 698 -615 l 1
0 363 m 1
 378 363 l 1
 378 -615 l 1
1075 683 m 1
 698 683 l 1
 698 1775 l 5
0 683 m 1
 378 683 l 1
 378 1775 l 5
EndSplineSet
EndChar

StartChar: upblock
Encoding: 9600 9600 568
Width: 1075
Flags: W
VStem: -0 922<523 1775>
LayerCount: 2
Fore
SplineSet
1075 523 m 1
 -0 523 l 1
 0 1775 l 5
 1075 1775 l 5
 1075 523 l 1
EndSplineSet
EndChar

StartChar: dnblock
Encoding: 9604 9604 569
Width: 1075
Flags: W
HStem: -615 1138<0 922>
VStem: -0 922<-615 523>
LayerCount: 2
Fore
SplineSet
1075 -615 m 1
 -0 -615 l 1
 -0 523 l 1
 1075 523 l 1
 1075 -615 l 1
EndSplineSet
EndChar

StartChar: block
Encoding: 9608 9608 570
Width: 1075
Flags: W
VStem: -0 922<-615 1775>
LayerCount: 2
Fore
SplineSet
-0 -615 m 1
 0 1775 l 5
 1075 1775 l 5
 1075 -615 l 1
 -0 -615 l 1
EndSplineSet
EndChar

StartChar: lfblock
Encoding: 9612 9612 571
Width: 1075
Flags: W
VStem: -0 461<-615 1775>
LayerCount: 2
Fore
SplineSet
-0 -615 m 1
 0 1775 l 5
 538 1775 l 5
 538 -615 l 1
 -0 -615 l 1
EndSplineSet
EndChar

StartChar: rtblock
Encoding: 9616 9616 572
Width: 1075
Flags: W
VStem: 461 461<-615 1775>
LayerCount: 2
Fore
SplineSet
538 -615 m 1
 538 1775 l 5
 1075 1775 l 5
 1075 -615 l 1
 538 -615 l 1
EndSplineSet
EndChar

StartChar: shadelight
Encoding: 9617 9617 573
Width: 1075
Flags: W
HStem: -514 100<153 230 461 540 769 846> -315 100<0 77 307 385 616 693> -115 99<153 230 461 540 769 846> 83 100<0 77 307 385 616 693> 283 99<153 230 461 540 769 846> 482 99<0 77 307 385 616 693> 681 100<153 230 461 540 769 846> 881 99<0 77 307 385 616 693> 1080 99<153 230 461 540 769 846> 1278 100<0 77 307 385 616 693> 1477 100<153 230 461 540 769 846> 1677 98<0 77 307 385 616 693>
VStem: 0 77<-315 -215 83 183 482 581 881 980 1278 1378 1677 1775> 153 77<-514 -414 -115 -16 283 382 681 781 1080 1179 1477 1577> 307 78<-315 -215 83 183 482 581 881 980 1278 1378 1677 1775> 461 79<-514 -414 -115 -16 283 382 681 781 1080 1179 1477 1577> 616 77<-315 -215 83 183 482 581 881 980 1278 1378 1677 1775> 769 77<-514 -414 -115 -16 283 382 681 781 1080 1179 1477 1577>
LayerCount: 2
Fore
SplineSet
0 1378 m 1
 90 1378 l 1
 90 1278 l 1
 0 1278 l 1
 0 1378 l 1
358 1378 m 1
 449 1378 l 1
 449 1278 l 1
 358 1278 l 1
 358 1378 l 1
719 1378 m 1
 808 1378 l 1
 808 1278 l 1
 719 1278 l 1
 719 1378 l 1
179 1179 m 1
 269 1179 l 1
 269 1080 l 1
 179 1080 l 1
 179 1179 l 1
538 1179 m 1
 630 1179 l 1
 630 1080 l 1
 538 1080 l 1
 538 1179 l 1
897 1179 m 1
 987 1179 l 1
 987 1080 l 1
 897 1080 l 1
 897 1179 l 1
719 980 m 1
 808 980 l 1
 808 881 l 1
 719 881 l 1
 719 980 l 1
358 980 m 1
 449 980 l 1
 449 881 l 1
 358 881 l 1
 358 980 l 1
0 980 m 1
 90 980 l 1
 90 881 l 1
 0 881 l 1
 0 980 l 1
897 781 m 1
 987 781 l 1
 987 681 l 1
 897 681 l 1
 897 781 l 1
538 781 m 1
 630 781 l 1
 630 681 l 1
 538 681 l 1
 538 781 l 1
179 781 m 1
 269 781 l 1
 269 681 l 1
 179 681 l 1
 179 781 l 1
0 581 m 1
 90 581 l 1
 90 482 l 1
 0 482 l 1
 0 581 l 1
358 581 m 1
 449 581 l 1
 449 482 l 1
 358 482 l 1
 358 581 l 1
719 581 m 1
 808 581 l 1
 808 482 l 1
 719 482 l 1
 719 581 l 1
897 382 m 1
 987 382 l 1
 987 283 l 1
 897 283 l 1
 897 382 l 1
538 382 m 1
 630 382 l 1
 630 283 l 1
 538 283 l 1
 538 382 l 1
179 382 m 1
 269 382 l 1
 269 283 l 1
 179 283 l 1
 179 382 l 1
0 183 m 1
 90 183 l 1
 90 83 l 1
 0 83 l 1
 0 183 l 1
358 183 m 1
 449 183 l 1
 449 83 l 1
 358 83 l 1
 358 183 l 1
719 183 m 1
 808 183 l 1
 808 83 l 1
 719 83 l 1
 719 183 l 1
179 -16 m 1
 269 -16 l 1
 269 -115 l 1
 179 -115 l 1
 179 -16 l 1
538 -16 m 1
 630 -16 l 1
 630 -115 l 1
 538 -115 l 1
 538 -16 l 1
897 -16 m 1
 987 -16 l 1
 987 -115 l 1
 897 -115 l 1
 897 -16 l 1
719 -215 m 1
 808 -215 l 1
 808 -315 l 1
 719 -315 l 1
 719 -215 l 1
358 -215 m 1
 449 -215 l 1
 449 -315 l 1
 358 -315 l 1
 358 -215 l 1
0 -215 m 1
 90 -215 l 1
 90 -315 l 1
 0 -315 l 1
 0 -215 l 1
179 -414 m 1
 269 -414 l 1
 269 -514 l 1
 179 -514 l 1
 179 -414 l 1
538 -414 m 1
 630 -414 l 1
 630 -514 l 1
 538 -514 l 1
 538 -414 l 1
897 -414 m 1
 987 -414 l 1
 987 -514 l 1
 897 -514 l 1
 897 -414 l 1
179 1577 m 1
 269 1577 l 1
 269 1477 l 1
 179 1477 l 1
 179 1577 l 1
538 1577 m 1
 630 1577 l 1
 630 1477 l 1
 538 1477 l 1
 538 1577 l 1
897 1577 m 1
 987 1577 l 1
 987 1477 l 1
 897 1477 l 1
 897 1577 l 1
0 1775 m 1
 90 1775 l 1
 90 1677 l 1
 0 1677 l 1
 0 1775 l 1
358 1775 m 1
 449 1775 l 1
 449 1677 l 1
 358 1677 l 1
 358 1775 l 1
719 1775 m 1
 808 1775 l 1
 808 1677 l 1
 719 1677 l 1
 719 1775 l 1
EndSplineSet
EndChar

StartChar: shademedium
Encoding: 9618 9618 574
Width: 1075
Flags: W
HStem: -514 100<0 77 153 230 307 384 461 539 616 692 769 846> -315 100<77 153 230 307 384 461 539 616 692 769 846 922> -115 99<0 77 153 230 307 384 461 539 616 692 769 846> 83 100<77 153 230 307 384 461 539 616 692 769 846 922> 283 99<0 77 153 230 307 384 461 539 616 692 769 846> 482 99<77 153 230 307 384 461 539 616 692 769 846 922> 681 100<0 77 153 230 307 384 461 539 616 692 769 846> 881 99<77 153 230 307 384 461 539 616 692 769 846 922> 1080 99<0 77 153 230 307 384 461 539 616 692 769 846> 1278 100<77 153 230 307 384 461 539 616 692 769 846 922> 1477 100<0 77 153 230 307 384 461 539 616 692 769 846> 1677 98<77 153 230 307 384 461 539 616 692 769 846 922>
VStem: 0 77<-514 -414 -115 -16 283 382 681 781 1080 1179 1477 1577> 77 76<-315 -215 83 183 482 581 881 980 1278 1378 1677 1775> 153 77<-514 -414 -115 -16 283 382 681 781 1080 1179 1477 1577> 230 77<-315 -215 83 183 482 581 881 980 1278 1378 1677 1775> 307 77<-514 -414 -115 -16 283 382 681 781 1080 1179 1477 1577> 384 77<-315 -215 83 183 482 581 881 980 1278 1378 1677 1775> 461 78<-514 -414 -115 -16 283 382 681 781 1080 1179 1477 1577> 539 77<-315 -215 83 183 482 581 881 980 1278 1378 1677 1775> 616 76<-514 -414 -115 -16 283 382 681 781 1080 1179 1477 1577> 692 77<-315 -215 83 183 482 581 881 980 1278 1378 1677 1775> 769 77<-514 -414 -115 -16 283 382 681 781 1080 1179 1477 1577> 846 76<-315 -215 83 183 482 581 881 980 1278 1378 1677 1775>
LayerCount: 2
Fore
SplineSet
90 1378 m 1
 179 1378 l 1
 179 1278 l 1
 90 1278 l 1
 90 1378 l 1
269 1378 m 1
 358 1378 l 1
 358 1278 l 1
 269 1278 l 1
 269 1378 l 1
448 1378 m 1
 538 1378 l 1
 538 1278 l 1
 448 1278 l 1
 448 1378 l 1
629 1378 m 1
 719 1378 l 1
 719 1278 l 1
 629 1278 l 1
 629 1378 l 1
807 1378 m 1
 897 1378 l 1
 897 1278 l 1
 807 1278 l 1
 807 1378 l 1
987 1378 m 1
 1075 1378 l 1
 1075 1278 l 1
 987 1278 l 1
 987 1378 l 1
0 1179 m 1
 90 1179 l 1
 90 1080 l 1
 0 1080 l 1
 0 1179 l 1
179 1179 m 1
 269 1179 l 1
 269 1080 l 1
 179 1080 l 1
 179 1179 l 1
358 1179 m 1
 448 1179 l 1
 448 1080 l 1
 358 1080 l 1
 358 1179 l 1
538 1179 m 1
 629 1179 l 1
 629 1080 l 1
 538 1080 l 1
 538 1179 l 1
719 1179 m 1
 807 1179 l 1
 807 1080 l 1
 719 1080 l 1
 719 1179 l 1
897 1179 m 1
 987 1179 l 1
 987 1080 l 1
 897 1080 l 1
 897 1179 l 1
90 980 m 1
 179 980 l 1
 179 881 l 1
 90 881 l 1
 90 980 l 1
269 980 m 1
 358 980 l 1
 358 881 l 1
 269 881 l 1
 269 980 l 1
448 980 m 1
 538 980 l 1
 538 881 l 1
 448 881 l 1
 448 980 l 1
629 980 m 1
 719 980 l 1
 719 881 l 1
 629 881 l 1
 629 980 l 1
807 980 m 1
 897 980 l 1
 897 881 l 1
 807 881 l 1
 807 980 l 1
987 980 m 1
 1075 980 l 1
 1075 881 l 1
 987 881 l 1
 987 980 l 1
0 781 m 1
 90 781 l 1
 90 681 l 1
 0 681 l 1
 0 781 l 1
179 781 m 1
 269 781 l 1
 269 681 l 1
 179 681 l 1
 179 781 l 1
358 781 m 1
 448 781 l 1
 448 681 l 1
 358 681 l 1
 358 781 l 1
538 781 m 1
 629 781 l 1
 629 681 l 1
 538 681 l 1
 538 781 l 1
719 781 m 1
 807 781 l 1
 807 681 l 1
 719 681 l 1
 719 781 l 1
897 781 m 1
 987 781 l 1
 987 681 l 1
 897 681 l 1
 897 781 l 1
90 581 m 1
 179 581 l 1
 179 482 l 1
 90 482 l 1
 90 581 l 1
269 581 m 1
 358 581 l 1
 358 482 l 1
 269 482 l 1
 269 581 l 1
448 581 m 1
 538 581 l 1
 538 482 l 1
 448 482 l 1
 448 581 l 1
629 581 m 1
 719 581 l 1
 719 482 l 1
 629 482 l 1
 629 581 l 1
807 581 m 1
 897 581 l 1
 897 482 l 1
 807 482 l 1
 807 581 l 1
987 581 m 1
 1075 581 l 1
 1075 482 l 1
 987 482 l 1
 987 581 l 1
0 382 m 1
 90 382 l 1
 90 283 l 1
 0 283 l 1
 0 382 l 1
358 382 m 1
 448 382 l 1
 448 283 l 1
 358 283 l 1
 358 382 l 1
538 382 m 1
 629 382 l 1
 629 283 l 1
 538 283 l 1
 538 382 l 1
719 382 m 1
 807 382 l 1
 807 283 l 1
 719 283 l 1
 719 382 l 1
897 382 m 1
 987 382 l 1
 987 283 l 1
 897 283 l 1
 897 382 l 1
179 382 m 1
 269 382 l 1
 269 283 l 1
 179 283 l 1
 179 382 l 1
987 183 m 1
 1075 183 l 1
 1075 83 l 1
 987 83 l 1
 987 183 l 1
807 183 m 1
 897 183 l 1
 897 83 l 1
 807 83 l 1
 807 183 l 1
629 183 m 1
 719 183 l 1
 719 83 l 1
 629 83 l 1
 629 183 l 1
448 183 m 1
 538 183 l 1
 538 83 l 1
 448 83 l 1
 448 183 l 1
269 183 m 1
 358 183 l 1
 358 83 l 1
 269 83 l 1
 269 183 l 1
90 183 m 1
 179 183 l 1
 179 83 l 1
 90 83 l 1
 90 183 l 1
0 -16 m 1
 90 -16 l 1
 90 -115 l 1
 0 -115 l 1
 0 -16 l 1
179 -16 m 1
 269 -16 l 1
 269 -115 l 1
 179 -115 l 1
 179 -16 l 1
358 -16 m 1
 448 -16 l 1
 448 -115 l 1
 358 -115 l 1
 358 -16 l 1
538 -16 m 1
 629 -16 l 1
 629 -115 l 1
 538 -115 l 1
 538 -16 l 1
719 -16 m 1
 807 -16 l 1
 807 -115 l 1
 719 -115 l 1
 719 -16 l 1
897 -16 m 1
 987 -16 l 1
 987 -115 l 1
 897 -115 l 1
 897 -16 l 1
987 -215 m 1
 1075 -215 l 1
 1075 -315 l 1
 987 -315 l 1
 987 -215 l 1
807 -215 m 1
 897 -215 l 1
 897 -315 l 1
 807 -315 l 1
 807 -215 l 1
629 -215 m 1
 719 -215 l 1
 719 -315 l 1
 629 -315 l 1
 629 -215 l 1
448 -215 m 1
 538 -215 l 1
 538 -315 l 1
 448 -315 l 1
 448 -215 l 1
269 -215 m 1
 358 -215 l 1
 358 -315 l 1
 269 -315 l 1
 269 -215 l 1
90 -215 m 1
 179 -215 l 1
 179 -315 l 1
 90 -315 l 1
 90 -215 l 1
0 -414 m 1
 90 -414 l 1
 90 -514 l 1
 0 -514 l 1
 0 -414 l 1
179 -414 m 1
 269 -414 l 1
 269 -514 l 1
 179 -514 l 1
 179 -414 l 1
358 -414 m 1
 448 -414 l 1
 448 -514 l 1
 358 -514 l 1
 358 -414 l 1
538 -414 m 1
 629 -414 l 1
 629 -514 l 1
 538 -514 l 1
 538 -414 l 1
719 -414 m 1
 807 -414 l 1
 807 -514 l 1
 719 -514 l 1
 719 -414 l 1
897 -414 m 1
 987 -414 l 1
 987 -514 l 1
 897 -514 l 1
 897 -414 l 1
0 1577 m 1
 90 1577 l 1
 90 1477 l 1
 0 1477 l 1
 0 1577 l 1
179 1577 m 1
 269 1577 l 1
 269 1477 l 1
 179 1477 l 1
 179 1577 l 1
358 1577 m 1
 448 1577 l 1
 448 1477 l 1
 358 1477 l 1
 358 1577 l 1
538 1577 m 1
 629 1577 l 1
 629 1477 l 1
 538 1477 l 1
 538 1577 l 1
719 1577 m 1
 807 1577 l 1
 807 1477 l 1
 719 1477 l 1
 719 1577 l 1
897 1577 m 1
 987 1577 l 1
 987 1477 l 1
 897 1477 l 1
 897 1577 l 1
90 1775 m 1
 179 1775 l 1
 179 1677 l 1
 90 1677 l 1
 90 1775 l 1
269 1775 m 1
 358 1775 l 1
 358 1677 l 1
 269 1677 l 1
 269 1775 l 1
448 1775 m 1
 538 1775 l 1
 538 1677 l 1
 448 1677 l 1
 448 1775 l 1
629 1775 m 1
 719 1775 l 1
 719 1677 l 1
 629 1677 l 1
 629 1775 l 1
807 1775 m 1
 897 1775 l 1
 897 1677 l 1
 807 1677 l 1
 807 1775 l 1
987 1775 m 1
 1075 1775 l 1
 1075 1677 l 1
 987 1677 l 1
 987 1775 l 1
EndSplineSet
EndChar

StartChar: shadedark
Encoding: 9619 9619 575
Width: 1075
Flags: W
HStem: -615 300<0 77 153 230 307 384 461 539 616 692 769 846> -615 101<77 153 230 307 384 461 539 616 692 769 846 922> -414 299<77 153 230 307 384 461 539 616 692 769 846 922> -215 299<0 77 153 230 307 384 461 539 616 692 769 846> -16 299<77 153 230 307 384 461 539 616 692 769 846 922> 183 299<0 77 153 230 307 384 461 539 616 692 769 846> 382 299<77 153 230 307 384 461 539 616 692 769 846 922> 581 299<0 77 153 230 307 384 461 539 616 692 769 846> 781 299<77 153 230 307 384 461 539 616 692 769 846 922> 980 299<0 77 153 230 307 384 461 539 616 692 769 846> 1179 299<77 153 230 307 384 461 539 616 692 769 846 922> 1378 299<0 77 153 230 307 384 461 539 616 692 769 846> 1577 198<77 153 230 307 384 461 539 616 692 769 846 922>
VStem: 0 77<-514 -414 -115 -16 283 382 681 781 1080 1179 1478 1577> 77 76<-315 -215 84 183 482 581 881 980 1279 1378 1677 1775> 153 77<-514 -414 -115 -16 283 382 681 781 1080 1179 1478 1577> 230 77<-315 -215 84 183 482 581 880 980 1279 1378 1677 1775> 307 77<-514 -414 -115 -16 283 382 681 781 1080 1179 1478 1577> 384 77<-315 -215 84 183 482 581 880 980 1279 1378 1677 1775> 461 78<-514 -414 -115 -16 283 382 681 781 1080 1179 1478 1577> 539 77<-315 -215 84 183 482 581 880 980 1279 1378 1677 1775> 616 76<-514 -414 -115 -16 283 382 681 781 1080 1179 1478 1577> 692 77<-315 -215 84 183 482 581 880 980 1279 1378 1677 1775> 769 77<-514 -414 -115 -16 283 382 681 781 1080 1179 1478 1577> 846 76<-315 -215 84 183 482 581 880 980 1279 1378 1677 1775>
LayerCount: 2
Fore
SplineSet
1075 1577 m 1x000fff80
 987 1577 l 1
 987 1478 l 1
 1075 1478 l 1
 1075 1179 l 1
 987 1179 l 1
 987 1080 l 1
 1075 1080 l 1
 1075 781 l 1
 987 781 l 1
 987 681 l 1
 1075 681 l 1
 1075 382 l 1
 987 382 l 1
 987 283 l 1
 1075 283 l 1
 1075 -16 l 1
 987 -16 l 1
 987 -115 l 1
 1075 -115 l 1
 1075 -414 l 1
 987 -414 l 1
 987 -514 l 1
 1075 -514 l 1
 1075 -615 l 1x6aafff80
 0 -615 l 1
 0 -315 l 1
 90 -315 l 1
 90 -215 l 1
 0 -215 l 1
 0 83 l 1
 90 83 l 1
 90 183 l 1
 0 183 l 1
 0 482 l 1
 90 482 l 1
 90 581 l 1
 0 581 l 1
 0 881 l 1
 90 881 l 1
 90 980 l 1
 0 980 l 1
 0 1279 l 1
 90 1279 l 1
 90 1378 l 1
 0 1378 l 1
 0 1677 l 1
 90 1677 l 1x9557ff80
 90 1775 l 1
 179 1775 l 1x000fff80
 179 1677 l 1
 269 1677 l 1x0017ff80
 269 1775 l 1
 358 1775 l 1x000fff80
 358 1677 l 1
 448 1677 l 1x0017ff80
 448 1775 l 1
 538 1775 l 1x000fff80
 538 1677 l 1
 629 1677 l 1x0017ff80
 629 1775 l 1
 719 1775 l 1x000fff80
 719 1677 l 1
 807 1677 l 1x0017ff80
 807 1775 l 1
 897 1775 l 1x000fff80
 897 1677 l 1
 987 1677 l 1x0017ff80
 987 1775 l 1
 1075 1775 l 1
 1075 1577 l 1x000fff80
90 1179 m 1
 90 1080 l 1
 179 1080 l 1
 179 1179 l 1
 90 1179 l 1
269 1179 m 1
 269 1080 l 1
 358 1080 l 1
 358 1179 l 1
 269 1179 l 1
448 1179 m 1
 448 1080 l 1
 538 1080 l 1
 538 1179 l 1
 448 1179 l 1
629 1179 m 1
 629 1080 l 1
 719 1080 l 1
 719 1179 l 1
 629 1179 l 1
807 1179 m 1
 807 1080 l 1
 897 1080 l 1
 897 1179 l 1
 807 1179 l 1
987 980 m 1x0147ff80
 897 980 l 1
 897 880 l 1
 987 880 l 1
 987 980 l 1x0147ff80
807 980 m 1
 719 980 l 1
 719 880 l 1
 807 880 l 1
 807 980 l 1
629 980 m 1
 538 980 l 1
 538 880 l 1
 629 880 l 1
 629 980 l 1
448 980 m 1
 358 980 l 1
 358 880 l 1
 448 880 l 1
 448 980 l 1
269 980 m 1
 179 980 l 1
 179 880 l 1
 269 880 l 1
 269 980 l 1
90 781 m 1x0287ff80
 90 681 l 1
 179 681 l 1
 179 781 l 1
 90 781 l 1x0287ff80
269 781 m 1
 269 681 l 1
 358 681 l 1
 358 781 l 1
 269 781 l 1
448 781 m 1
 448 681 l 1
 538 681 l 1
 538 781 l 1
 448 781 l 1
629 781 m 1
 629 681 l 1
 719 681 l 1
 719 781 l 1
 629 781 l 1
807 781 m 1
 807 681 l 1
 897 681 l 1
 897 781 l 1
 807 781 l 1
269 581 m 1x0507ff80
 179 581 l 1
 179 482 l 1
 269 482 l 1
 269 581 l 1x0507ff80
358 581 m 1
 358 482 l 1
 448 482 l 1
 448 581 l 1
 358 581 l 1
538 581 m 1
 538 482 l 1
 629 482 l 1
 629 581 l 1
 538 581 l 1
719 581 m 1
 719 482 l 1
 807 482 l 1
 807 581 l 1
 719 581 l 1
897 581 m 1
 897 482 l 1
 987 482 l 1
 987 581 l 1
 897 581 l 1
90 382 m 1x0a07ff80
 90 283 l 1
 179 283 l 1
 179 382 l 1
 90 382 l 1x0a07ff80
448 382 m 1
 448 283 l 1
 538 283 l 1
 538 382 l 1
 448 382 l 1
358 283 m 1
 358 382 l 1
 269 382 l 1
 269 283 l 1
 358 283 l 1
629 382 m 1
 629 283 l 1
 719 283 l 1
 719 382 l 1
 629 382 l 1
807 382 m 1
 807 283 l 1
 897 283 l 1
 897 382 l 1
 807 382 l 1
987 84 m 1x1407ff80
 987 183 l 1
 897 183 l 1
 897 84 l 1
 987 84 l 1x1407ff80
807 84 m 1
 807 183 l 1
 719 183 l 1
 719 84 l 1
 807 84 l 1
629 84 m 1
 629 183 l 1
 538 183 l 1
 538 84 l 1
 629 84 l 1
448 84 m 1
 448 183 l 1
 358 183 l 1
 358 84 l 1
 448 84 l 1
269 84 m 1
 269 183 l 1
 179 183 l 1
 179 84 l 1
 269 84 l 1
90 -16 m 1x2807ff80
 90 -115 l 1
 179 -115 l 1
 179 -16 l 1
 90 -16 l 1x2807ff80
269 -16 m 1
 269 -115 l 1
 358 -115 l 1
 358 -16 l 1
 269 -16 l 1
448 -16 m 1
 448 -115 l 1
 538 -115 l 1
 538 -16 l 1
 448 -16 l 1
629 -16 m 1
 629 -115 l 1
 719 -115 l 1
 719 -16 l 1
 629 -16 l 1
807 -16 m 1
 807 -115 l 1
 897 -115 l 1
 897 -16 l 1
 807 -16 l 1
987 -315 m 1x9007ff80
 987 -215 l 1
 897 -215 l 1
 897 -315 l 1
 987 -315 l 1x9007ff80
807 -315 m 1
 807 -215 l 1
 719 -215 l 1
 719 -315 l 1
 807 -315 l 1
629 -315 m 1
 629 -215 l 1
 538 -215 l 1
 538 -315 l 1
 629 -315 l 1
448 -315 m 1
 448 -215 l 1
 358 -215 l 1
 358 -315 l 1
 448 -315 l 1
269 -315 m 1
 269 -215 l 1
 179 -215 l 1
 179 -315 l 1
 269 -315 l 1
90 -414 m 1x6007ff80
 90 -514 l 1
 179 -514 l 1
 179 -414 l 1
 90 -414 l 1x6007ff80
269 -414 m 1
 269 -514 l 1
 358 -514 l 1
 358 -414 l 1
 269 -414 l 1
448 -414 m 1
 448 -514 l 1
 538 -514 l 1
 538 -414 l 1
 448 -414 l 1
629 -414 m 1
 629 -514 l 1
 719 -514 l 1
 719 -414 l 1
 629 -414 l 1
807 -414 m 1
 807 -514 l 1
 897 -514 l 1
 897 -414 l 1
 807 -414 l 1
987 1378 m 1x0057ff80
 897 1378 l 1
 897 1279 l 1
 987 1279 l 1
 987 1378 l 1x0057ff80
807 1378 m 1
 719 1378 l 1
 719 1279 l 1
 807 1279 l 1
 807 1378 l 1
629 1378 m 1
 538 1378 l 1
 538 1279 l 1
 629 1279 l 1
 629 1378 l 1
448 1378 m 1
 358 1378 l 1
 358 1279 l 1
 448 1279 l 1
 448 1378 l 1
269 1378 m 1
 179 1378 l 1
 179 1279 l 1
 269 1279 l 1
 269 1378 l 1
897 1577 m 1x002fff80
 807 1577 l 1
 807 1478 l 1
 897 1478 l 1
 897 1577 l 1x002fff80
719 1577 m 1
 629 1577 l 1
 629 1478 l 1
 719 1478 l 1
 719 1577 l 1
538 1577 m 1
 448 1577 l 1
 448 1478 l 1
 538 1478 l 1
 538 1577 l 1
358 1577 m 1
 269 1577 l 1
 269 1478 l 1
 358 1478 l 1
 358 1577 l 1
179 1577 m 1
 90 1577 l 1
 90 1478 l 1
 179 1478 l 1
 179 1577 l 1
EndSplineSet
EndChar

StartChar: blacksquare
Encoding: 9632 9632 576
Width: 1075
Flags: W
HStem: 116.375 992.245<0 922>
VStem: 0 922<116.375 1108.62>
LayerCount: 2
Fore
SplineSet
0 1294 m 5
 1075 1294 l 5
 1075 136 l 5
 0 136 l 5
 0 1294 l 5
EndSplineSet
EndChar

StartChar: whitesquare
Encoding: 9633 9633 577
Width: 1075
Flags: W
HStem: 116 192.35<187.15 733.85> 916.65 192.35<187.15 733.85>
VStem: 0 187.15<308.35 916.65> 733.85 188.15<308.35 916.65>
LayerCount: 2
Fore
SplineSet
0 1294 m 1
 1075 1294 l 1
 1075 136 l 1
 0 136 l 1
 0 1294 l 1
219 1070 m 1
 219 360 l 1
 856 360 l 1
 856 1070 l 1
 219 1070 l 1
EndSplineSet
EndChar

StartChar: blacksmallsquare
Encoding: 9642 9642 578
Width: 1075
Flags: W
HStem: 400.365 472.271<224.175 696.825>
VStem: 224.175 472.65<400.365 872.635>
LayerCount: 2
Fore
SplineSet
813 467 m 5
 262 467 l 5
 262 1018 l 5
 813 1018 l 5
 813 467 l 5
EndSplineSet
EndChar

StartChar: whitesmallsquare
Encoding: 9643 9643 579
Width: 1075
Flags: W
HStem: 400.365 113.926<341.925 579.075> 758.709 113.926<341.925 579.075>
VStem: 224.175 117.75<514.291 758.709> 579.075 117.75<514.291 758.709>
LayerCount: 2
Fore
SplineSet
813 467 m 1
 262 467 l 1
 262 1018 l 1
 813 1018 l 1
 813 467 l 1
676 600 m 1
 676 885 l 1
 399 885 l 1
 399 600 l 1
 676 600 l 1
EndSplineSet
EndChar

StartChar: blackrectangle
Encoding: 9644 9644 580
Width: 1075
Flags: W
HStem: 395 231<0 922>
LayerCount: 2
Fore
SplineSet
0 730 m 1
 1075 730 l 5
 1075 461 l 5
 0 461 l 1
 0 730 l 1
EndSplineSet
EndChar

StartChar: triagup
Encoding: 9650 9650 581
Width: 1075
Flags: W
LayerCount: 2
Fore
SplineSet
0 133 m 5
 537 1066 l 5
 1075 133 l 5
 0 133 l 5
EndSplineSet
EndChar

StartChar: triagrt
Encoding: 9658 9658 582
Width: 1075
Flags: W
LayerCount: 2
Fore
SplineSet
74 -73 m 1
 72 1003 l 1
 1004 465 l 1
 74 -73 l 1
EndSplineSet
EndChar

StartChar: triagdn
Encoding: 9660 9660 583
Width: 1075
Flags: W
LayerCount: 2
Fore
SplineSet
1075 1066 m 5
 539 133 l 5
 0 1066 l 5
 1075 1066 l 5
EndSplineSet
EndChar

StartChar: triaglf
Encoding: 9668 9668 584
Width: 1075
Flags: W
LayerCount: 2
Fore
SplineSet
73 465 m 5
 1003 1004 l 5
 1003 -73 l 5
 73 465 l 5
EndSplineSet
EndChar

StartChar: lozenge
Encoding: 9674 9674 585
Width: 1075
Flags: W
DStem2: 261 710 89 709 0.489251 -0.872143<0 400.76> 89 709 261 710 0.486669 0.873586<84.5807 485.336> 501 1287 458 1059 0.499203 -0.866485<176.093 577.838> 458 361 501 135 0.501808 0.864979<0 401.737>
LayerCount: 2
Fore
SplineSet
585 1501 m 1
 973 827 l 1
 585 158 l 1
 480 158 l 1
 104 827 l 1
 480 1501 l 1
 585 1501 l 1
535 1235 m 1
 305 828 l 1
 535 421 l 1
 767 828 l 1
 535 1235 l 1
EndSplineSet
EndChar

StartChar: whitecircle
Encoding: 9675 9675 586
Width: 1075
Flags: W
HStem: 221 150<334.35 586.595> 784 150<333.91 587.132>
VStem: 104 150<452.439 703.668> 668 150<451.815 701.975>
LayerCount: 2
Fore
SplineSet
538 1089 m 0
 774 1089 954 898 954 674 c 0
 954 440 768 258 538 258 c 0
 301 258 122 445 122 674 c 0
 122 890 293 1089 538 1089 c 0
538 915 m 0
 398 915 297 803 297 674 c 0
 297 529 414 433 538 433 c 256
 673 433 779 540 779 674 c 0
 779 797 681 915 538 915 c 0
EndSplineSet
EndChar

StartChar: blackcircle
Encoding: 9679 9679 587
Width: 1075
Flags: W
HStem: 221 713<292.824 631.094>
VStem: 104 714<407.906 745.646>
LayerCount: 2
Fore
SplineSet
538 1089 m 0
 774 1089 954 898 954 674 c 0
 954 440 768 258 538 258 c 0
 301 258 122 445 122 674 c 0
 122 890 293 1089 538 1089 c 0
EndSplineSet
EndChar

StartChar: bulletinverse
Encoding: 9688 9688 588
Width: 1075
Flags: W
HStem: 93.0996 233.28<349.727 573.114> 653.62 233.28<348.385 573.674>
VStem: 63 234<377.921 601.629> 624 233<379.634 603.318>
LayerCount: 2
Fore
SplineSet
74 109 m 1
 74 1035 l 1
 1000 1035 l 1
 1000 109 l 1
 74 109 l 1
537 763 m 256
 434 763 347 682 347 572 c 0
 347 460 438 381 537 381 c 0
 642 381 728 465 728 572 c 0
 728 678 644 763 537 763 c 256
EndSplineSet
EndChar

StartChar: whitecircleinverse
Encoding: 9689 9689 589
Width: 1075
Flags: W
HStem: 110 111<289.809 635.959> 371 413<335.607 588.433> 934 111<293.797 632.866>
VStem: 0 105<406.695 749.753> 255 413<448.029 702.431> 818 104<402.264 747.094>
LayerCount: 2
Fore
SplineSet
0 129 m 1
 0 1219 l 1
 1075 1219 l 1
 1075 129 l 1
 0 129 l 1
538 1089 m 0
 315 1089 123 910 123 673 c 0
 123 442 305 258 538 258 c 0
 761 258 954 431 954 673 c 0
 954 903 772 1089 538 1089 c 0
539 915 m 0
 673 915 779 806 779 673 c 0
 779 536 670 433 539 433 c 0
 407 433 298 536 298 673 c 0
 298 811 410 915 539 915 c 0
EndSplineSet
EndChar

StartChar: whitebullet
Encoding: 9702 9702 590
Width: 1075
Flags: W
HStem: 406 113<368.896 552.757> 754 113<368.685 552.223>
VStem: 230 113<545.062 727.979> 579 112<546.84 727.446>
LayerCount: 2
Fore
SplineSet
806 743 m 0
 806 582 677 474 537 474 c 256
 389 474 269 592 269 743 c 0
 269 892 388 1011 537 1011 c 0
 690 1011 806 891 806 743 c 0
676 743 m 0
 676 822 611 880 537 880 c 256
 466 880 400 825 400 743 c 0
 400 660 466 606 537 606 c 256
 614 606 676 666 676 743 c 0
EndSplineSet
EndChar

StartChar: smileface
Encoding: 9786 9786 591
Width: 1075
Flags: W
HStem: 124 126<298.564 622.839> 338 54<371.617 548.201> 608 114<255.697 366.296 555.643 665.674> 919 126<293.127 624.394>
VStem: -0 127<417.754 749.129> 254 114<609.589 720.417> 554 113<609.487 720.519> 795 126<419.528 752.828>
LayerCount: 2
Fore
SplineSet
1074 681 m 0
 1074 382 839 145 537 145 c 0
 236 145 0 384 0 681 c 0
 0 992 248 1219 537 1219 c 0
 839 1219 1074 981 1074 681 c 0
927 681 m 0
 927 899 757 1072 537 1072 c 0
 318 1072 149 898 149 681 c 0
 149 455 329 292 537 292 c 0
 749 292 927 458 927 681 c 0
430 777 m 256
 430 740 400 709 362 709 c 256
 325 709 297 742 297 777 c 256
 297 810 323 842 362 842 c 256
 402 842 430 811 430 777 c 256
778 777 m 256
 778 740 751 709 714 709 c 256
 674 709 646 740 646 777 c 256
 646 812 673 842 714 842 c 256
 751 842 778 812 778 777 c 256
327 535 m 1
 372 560 l 1
 410 493 465 458 537 458 c 256
 610 458 665 493 702 560 c 1
 748 535 l 1
 700 441 629 395 537 395 c 0
 424 395 362 468 327 535 c 1
EndSplineSet
EndChar

StartChar: invsmileface
Encoding: 9787 9787 592
Width: 1075
Flags: W
HStem: 124 171<330.15 591.942> 738 307<261.901 501.505 421.958 661.515>
VStem: -0 226<494.273 736.313> 343 236<622.894 736.048> 695 226<493.852 734.781>
LayerCount: 2
Fore
SplineSet
1074 681 m 0
 1074 382 839 145 537 145 c 0
 236 145 0 384 0 681 c 0
 0 992 248 1219 537 1219 c 0
 839 1219 1074 981 1074 681 c 0
400 793 m 256
 400 828 371 861 332 861 c 256
 292 861 264 827 264 793 c 256
 264 758 293 725 332 725 c 256
 370 725 400 756 400 793 c 256
811 793 m 256
 811 829 784 861 744 861 c 256
 704 861 676 829 676 793 c 256
 676 756 705 725 744 725 c 256
 783 725 811 756 811 793 c 256
290 509 m 1
 330 431 404 344 537 344 c 0
 671 344 743 430 785 509 c 1
 732 539 l 1
 687 459 623 418 537 418 c 256
 452 418 388 459 343 539 c 1
 290 509 l 1
EndSplineSet
EndChar

StartChar: compass
Encoding: 9788 9788 593
Width: 1075
Flags: W
HStem: 448 46<0 162 760 922> 722 47<486 563.283>
VStem: 162 48<494 578.675> 436 50<10 173 769 932> 710 50<363.517 448 492 580.419>
DStem2: 125 839 95 802 0.707613 -0.7066<4.91579 197.993 796.168 991.33> 95 139 127 106 0.708621 0.705589<0 194.565 792.769 988.636>
LayerCount: 2
Fore
SplineSet
509 1087 m 1
 567 1087 l 1
 567 897 l 1
 648 897 707 861 763 818 c 1
 927 978 l 1
 966 938 l 1
 805 776 l 1
 856 708 887 641 887 574 c 1
 1075 574 l 1
 1075 523 l 1
 887 523 l 1
 878 453 852 385 806 327 c 1
 966 160 l 1
 925 123 l 1
 763 283 l 1
 698 234 649 212 567 202 c 1
 567 12 l 1
 509 12 l 1
 509 202 l 1
 435 213 371 240 314 280 c 1
 149 124 l 1
 111 163 l 1
 271 325 l 1
 224 384 198 449 189 523 c 1
 0 523 l 1
 0 576 l 1
 189 576 l 1
 189 651 223 716 270 774 c 1
 111 936 l 1
 146 979 l 1
 313 819 l 1
 379 864 446 890 509 897 c 1
 509 1087 l 1
537 842 m 256
 369 842 245 708 245 550 c 0
 245 388 371 258 537 258 c 256
 705 258 828 391 828 550 c 0
 828 713 699 842 537 842 c 256
EndSplineSet
EndChar

StartChar: female
Encoding: 9792 9792 594
Width: 1075
Flags: W
HStem: 343 69<175 426 499 747> 577 81<346.207 426 499 579.178> 1069 84<343.449 581.435>
VStem: 183 79<741.948 982.372> 426 73<80 343 412 577> 661 80<741.559 986.112>
LayerCount: 2
Fore
SplineSet
497 673 m 1
 335 697 214 834 214 1006 c 0
 214 1210 370 1345 539 1345 c 0
 709 1345 864 1207 864 1006 c 0
 864 821 733 693 582 673 c 1
 582 481 l 1
 871 481 l 1
 871 400 l 1
 582 400 l 1
 582 94 l 1
 497 94 l 1
 497 400 l 1
 205 400 l 1
 205 481 l 1
 497 481 l 1
 497 673 l 1
538 1247 m 0
 410 1247 306 1142 306 1008 c 256
 306 871 411 768 538 768 c 256
 663 768 771 868 771 1008 c 256
 771 1147 664 1247 538 1247 c 0
EndSplineSet
EndChar

StartChar: male
Encoding: 9794 9794 595
Width: 1075
Flags: W
HStem: 250 75<211.388 439.888> 750 75<207.521 441.935>
VStem: 42 76<417.863 660.889> 531 75<414.96 660.222>
DStem2: 474 782 525 740 0.693164 0.72078<5.0786 360.117>
LayerCount: 2
Fore
SplineSet
553 912 m 1
 846 1217 l 1
 785 1247 602 1311 602 1317 c 1
 627 1345 l 9
 1008 1345 l 0
 1027 1327 l 0
 1027 925 l 273
 1000 901 l 1
 994 901 927 1102 899 1162 c 1
 613 863 l 1
 676 800 707 726 707 639 c 0
 707 441 558 292 377 292 c 256
 189 292 49 445 49 624 c 0
 49 810 192 962 379 962 c 0
 433 962 490 946 553 912 c 1
379 875 m 0
 244 875 138 767 138 628 c 256
 138 484 252 379 379 379 c 256
 503 379 620 476 620 628 c 0
 620 774 507 875 379 875 c 0
EndSplineSet
EndChar

StartChar: spade
Encoding: 9824 9824 596
Width: 1075
Flags: W
HStem: 152 28<168 272.283 656.397 754>
VStem: 456 14<417.894 503>
LayerCount: 2
Fore
SplineSet
538 1259 m 1
 621 915 964 860 964 615 c 0
 964 500 876 419 772 419 c 0
 681 419 607 475 548 587 c 1
 548 285 715 210 880 210 c 1
 885 178 l 1
 189 178 l 1
 196 210 l 1
 466 210 532 390 532 587 c 1
 477 468 395 419 304 419 c 0
 199 419 111 504 111 611 c 0
 111 870 459 898 538 1259 c 1
EndSplineSet
EndChar

StartChar: club
Encoding: 9827 9827 597
Width: 1075
Flags: W
HStem: 151 25<150 211.374 718.551 773> 355 416<78.7852 299.617 619.973 842.203>
VStem: 252 415<744.613 993.475> 453 15<445.978 533>
LayerCount: 2
Fore
SplineSet
909 177 m 1xd0
 170 177 l 1
 175 206 l 1
 199 210 529 238 529 581 c 0
 529 590 529 603 529 622 c 1xd0
 463 488 356 414 242 414 c 0
 118 414 0 507 0 658 c 0
 0 817 121 899 209 899 c 0
 245 899 293 884 353 854 c 1
 304 936 294 965 294 1014 c 0
 294 1143 392 1249 536 1249 c 0
 676 1249 778 1144 778 1016 c 0xe0
 778 964 758 910 718 854 c 1
 800 892 812 899 860 899 c 0
 974 899 1075 802 1075 662 c 0
 1075 518 965 414 836 414 c 0
 655 414 564 593 546 622 c 1
 546 285 734 240 902 206 c 1
 909 177 l 1xd0
EndSplineSet
EndChar

StartChar: heart
Encoding: 9829 9829 598
Width: 1075
Flags: W
LayerCount: 2
Fore
SplineSet
540 143 m 1
 445 496 93 718 93 952 c 0
 93 1079 186 1165 304 1165 c 0
 398 1165 488 1113 540 961 c 1
 582 1113 680 1166 771 1166 c 0
 895 1166 982 1070 982 962 c 0
 982 691 632 496 540 143 c 1
EndSplineSet
EndChar

StartChar: diamond
Encoding: 9830 9830 599
Width: 1075
Flags: W
LayerCount: 2
Fore
SplineSet
537 1246 m 1
 624 1039 788 833 939 700 c 1
 812 602 635 367 537 152 c 1
 458 332 266 602 138 700 c 1
 291 833 424 1008 537 1246 c 1
EndSplineSet
EndChar

StartChar: musicalnote
Encoding: 9834 9834 600
Width: 1075
Flags: W
HStem: 135.78 236.52<235.114 404.073> 1026.22 20G<419 480>
VStem: 183 297<213.517 321.525> 419 61<357.72 767.58 964.41 1046.22> 626 67<401.088 670.848>
LayerCount: 2
Fore
SplineSet
489 418 m 1xd8
 489 1220 l 1
 560 1220 l 1
 560 1125 l 1
 706 945 l 2
 759 870 808 764 808 644 c 0
 808 547 778 462 719 388 c 1
 674 388 l 1
 712 470 730 549 730 623 c 256
 730 786 633 884 560 895 c 1
 560 418 l 2xd8
 560 264 460 159 322 159 c 0
 254 159 214 191 214 252 c 0xe8
 214 346 295 435 404 435 c 0
 429 435 457 430 489 418 c 1xd8
EndSplineSet
EndChar

StartChar: musicalnotedbl
Encoding: 9835 9835 601
Width: 1075
Flags: W
HStem: 71 235<87.9738 255.579> 147 235<593.354 761.757> 1025 20G<760.793 839>
VStem: 272 61<292 611 714 807> 779 60<368 732 835 928>
DStem2: 272 900 333 807 0.968822 0.247759<36.0566 498.13> 333 714 333 611 0.965113 0.261835<0 435.153>
LayerCount: 2
Fore
SplineSet
979 430 m 2xb8
 979 261 863 172 742 172 c 0
 651 172 634 228 634 265 c 0
 634 358 714 446 824 446 c 0x78
 855 446 883 439 909 430 c 1
 909 854 l 1
 389 713 l 1
 389 341 l 2
 389 172 273 83 151 83 c 0
 60 83 42 139 42 177 c 0
 42 269 123 357 234 357 c 0
 265 357 295 351 318 341 c 1
 318 1050 l 1
 979 1219 l 1
 979 430 l 2xb8
389 833 m 1
 909 974 l 1
 909 1082 l 1
 389 941 l 1
 389 833 l 1
EndSplineSet
EndChar

StartChar: arrowboth
Encoding: 8596 8596 602
Width: 1075
VWidth: 1708
Flags: W
LayerCount: 2
Fore
SplineSet
448 960 m 29
 127 600 l 29
 448 240 l 29
77 -99 m 5
 77 1224 l 5
 999 1224 l 5
 999 -99 l 5
 77 -99 l 5
628 960 m 29
 949 600 l 29
 628 240 l 29
949 600 m 29
 127 600 l 29
EndSplineSet
EndChar

StartChar: arrowbothv
Encoding: 8597 8597 603
Width: 1075
VWidth: 1708
Flags: W
LayerCount: 2
Fore
SplineSet
898 690 m 29
 538 1061 l 29
 178 690 l 29
77 87 m 5
 77 1113 l 5
 999 1113 l 5
 999 87 l 5
 77 87 l 5
898 510 m 29
 538 139 l 29
 178 510 l 29
538 139 m 29
 538 1061 l 29
EndSplineSet
EndChar

StartChar: updownarrowbar
Encoding: 8616 8616 604
Width: 1075
VWidth: 1708
Flags: W
LayerCount: 2
Fore
SplineSet
127 58 m 25
 949 58 l 25
898 690 m 25
 538 1061 l 25
 178 690 l 25
77 -443 m 1
 77 1113 l 1
 999 1113 l 1
 999 -443 l 1
 77 -443 l 1
898 510 m 25
 538 139 l 25
 178 510 l 25
538 139 m 25
 538 1061 l 25
EndSplineSet
EndChar

StartChar: nsuperior
Encoding: 8319 8319 605
Width: 1075
VWidth: 1947
Flags: MW
LayerCount: 2
Fore
SplineSet
800 544 m 25
 800 1103 l 18
 800 1255 724 1319 547 1319 c 10
 529 1319 l 18
 374 1319 276 1140 276 1026 c 10
 276 942 l 25
276 1424 m 25
 276 544 l 25
EndSplineSet
EndChar

StartChar: radical
Encoding: 8730 8730 606
Width: 1075
VWidth: 1708
Flags: MW
LayerCount: 2
Back
SplineSet
0 -25 m 5
 0 1633 l 5
 1075 1633 l 5
 1075 -25 l 5
 0 -25 l 5
EndSplineSet
Fore
SplineSet
985 1755 m 25
 588 37 l 25
 254 995 l 25
 48 995 l 25
EndSplineSet
EndChar

StartChar: intersection
Encoding: 8745 8745 608
Width: 1075
Flags: MW
LayerCount: 2
Fore
SplineSet
217 0 m 25
 217 1063 l 18
 217 1230 357 1333 529 1333 c 10
 547 1333 l 18
 699 1333 861 1227 861 1063 c 10
 861 0 l 25
EndSplineSet
EndChar

StartChar: infinity
Encoding: 8734 8734 609
Width: 1075
Flags: MW
LayerCount: 2
Fore
SplineSet
752 832 m 3
 890 832 957 715 957 618 c 3
 957 527 884 403 752 403 c 3
 633 403 538 517 538 618 c 3
 538 712 641 832 752 832 c 3
318 832 m 3
 183 832 118 714 118 618 c 3
 118 531 179 403 318 403 c 3
 464 403 538 517 538 618 c 3
 538 712 464 832 318 832 c 3
EndSplineSet
EndChar

StartChar: almostequal
Encoding: 8776 8776 610
Width: 1075
VWidth: 1947
Flags: MW
LayerCount: 2
Fore
SplineSet
139 340 m 17
 170 448 252 517 364 517 c 10
 379 517 l 18
 408 517 468 499 494 473 c 2
 587 381 l 2
 612 356 670 341 697 341 c 10
 712 341 l 18
 793 341 860 408 937 517 c 9
139 800 m 17
 170 908 255 977 364 977 c 10
 379 977 l 18
 408 977 468 959 494 933 c 2
 587 841 l 2
 612 816 670 801 697 801 c 10
 712 801 l 18
 793 801 860 867 937 977 c 9
EndSplineSet
EndChar

StartChar: equivalence
Encoding: 8801 8801 611
Width: 1075
Flags: MW
LayerCount: 2
Fore
SplineSet
50 980 m 25
 1025 980 l 25
50 600 m 25
 1025 600 l 25
50 220 m 25
 1025 220 l 25
EndSplineSet
EndChar

StartChar: lessequal
Encoding: 8804 8804 612
Width: 1075
VWidth: 1708
Flags: MW
LayerCount: 2
Back
SplineSet
90 1612 m 5
 985 1612 l 5
 985 -150 l 5
 90 -150 l 5
 90 1612 l 5
EndSplineSet
Fore
SplineSet
-81 619 m 25
 1055 114 l 25
1055 1246 m 25
 182 877 l 25
 1055 507 l 25
EndSplineSet
EndChar

StartChar: greaterequal
Encoding: 8805 8805 613
Width: 1075
VWidth: 1708
Flags: MW
LayerCount: 2
Back
SplineSet
90 1612 m 5
 985 1612 l 5
 985 -150 l 5
 90 -150 l 5
 90 1612 l 5
EndSplineSet
Fore
SplineSet
1233 619 m 25
 20 114 l 25
20 1246 m 25
 894 877 l 25
 20 507 l 25
EndSplineSet
EndChar

StartChar: revlogicalnot
Encoding: 8976 8976 614
Width: 1075
VWidth: 1708
Flags: MW
LayerCount: 2
Fore
SplineSet
1025 600 m 25
 182 600 l 25
 182 246 l 25
EndSplineSet
EndChar

StartChar: integraltp
Encoding: 8992 8992 615
Width: 1075
Flags: MW
LayerCount: 2
Fore
SplineSet
538 -615 m 25
 538 1414 l 18
 538 1489.5 588.5 1548 677 1548 c 2
 687 1548 l 2
 770 1548 817 1489.5 817 1414 c 9
 817 1308 l 25
EndSplineSet
EndChar

StartChar: integralbt
Encoding: 8993 8993 616
Width: 1075
Flags: MW
LayerCount: 2
Fore
SplineSet
538 1775 m 29
 538 -324 l 18
 538 -399.5 487.5 -458 399 -458 c 2
 389 -458 l 2
 229 -458 182 -399.5 182 -324 c 9
 182 -218 l 25
EndSplineSet
EndChar

StartChar: exclam
Encoding: -1 33 617
Width: 922
Flags: MW
LayerCount: 2
Fore
SplineSet
662 95 m 0
 662 24 603 -23 537 -23 c 0
 475 -23 413 24 413 95 c 0
 413 156 465 213 537 213 c 0
 602 213 662 166 662 95 c 0
533 1418 m 0
 597 1418 679 1381 679 1273 c 2
 644 384 l 1
 434 384 l 1
 399 1274 l 2
 399 1383 480 1418 533 1418 c 0
EndSplineSet
EndChar
